<svg width="2500" height="639" viewBox="0 0 2500 639" fill="none" xmlns="http://www.w3.org/2000/svg">
<g clip-path="url(#clip0_6095_58)">
<path d="M758.102 586.4V52.6H932.702C990.602 52.6 1034.2 64.6 1063.4 88.6C1092.6 112.5 1107.2 148 1107.2 195.1C1107.2 220 1100.2 242.2 1085.9 261.3C1071.8 280.6 1052.5 295.5 1028 306C1056.9 314 1079.7 329.4 1096.5 351.9C1113.3 374.6 1121.5 401.5 1121.5 432.6C1121.5 480.5 1106 518.1 1074.9 545.4C1043.9 572.8 1000.1 586.4 943.402 586.4H758.102ZM828.602 337.9V528.6H944.702C977.502 528.6 1003.4 520.2 1022.3 503.3C1041.2 486.4 1050.7 463.1 1050.7 433.6C1050.7 369.8 1015.8 337.9 945.802 337.9H828.602ZM828.602 280.1H934.802C965.602 280.1 990.202 272.3 1008.8 256.9C1027.2 241.5 1036.5 220.7 1036.5 194.3C1036.5 164.9 1027.9 143.6 1010.8 130.3C993.702 116.9 967.602 110.3 932.702 110.3H828.602V280.1ZM1520.2 446.8H1296.4L1246.2 586.5H1173.6L1377.5 52.6H1439.1L1643.3 586.5H1571.1L1520.2 446.8ZM1317.8 389H1499.4L1408.4 139.5L1317.8 389ZM1872.5 348.5C1812.2 331.1 1768.3 309.7 1740.7 284.4C1713.2 259.1 1699.4 227.8 1699.4 190.7C1699.4 148.7 1716.3 113.9 1749.8 86.3C1783.5 58.8 1827.1 45 1880.8 45C1917.5 45 1950.3 52.1 1978.9 66.3C2007.7 80.4 2029.8 100 2045.6 125C2061.4 149.9 2069.3 177.2 2069.3 206.7H1998.6C1998.6 174.4 1988.3 149 1967.8 130.5C1947.3 112.1 1918.2 102.8 1880.8 102.8C1846.1 102.8 1819.1 110.4 1799.7 125.7C1780.2 141.1 1770.5 162.2 1770.5 189.4C1770.5 211.2 1779.6 229.7 1798.2 244.7C1816.6 259.7 1848 273.5 1892.4 286C1936.7 298.5 1971.5 312.3 1996.5 327.3C2021.5 342.3 2040.1 359.8 2052.2 380C2064.3 400 2070.3 423.7 2070.3 450.8C2070.3 494.1 2053.4 528.8 2019.7 554.8C1985.9 580.8 1940.9 593.8 1884.4 593.8C1847.7 593.8 1813.4 586.8 1781.7 572.8C1750 558.7 1725.5 539.4 1708.2 515C1690.9 490.6 1682.4 462.8 1682.4 431.8H1753.1C1753.1 464 1765 489.4 1788.9 508C1812.7 526.6 1844.5 536 1884.4 536C1921.6 536 1950 528.4 1969.8 513.2C1989.7 498.1 1999.6 477.4 1999.6 451.4C1999.6 425.2 1990.3 405 1972.1 390.7C1954 376.6 1920.7 362.4 1872.5 348.5ZM2462.6 340.1H2231.3V528.6H2500V586.4H2160.9V52.6H2496.4V110.4H2231.3V282.3H2462.6V340.1Z" fill="white"/>
<path d="M318.3 639C494.7 639 637.8 496 637.8 319.5C637.8 143.1 494.8 0 318.3 0C151 0 13.6 128.8 0 292.6H422.2V346.3H0C13.6 510.2 151 639 318.3 639Z" fill="white"/>
</g>
<defs>
<clipPath id="clip0_6095_58">
<rect width="2500" height="639" fill="white"/>
</clipPath>
</defs>
</svg>
