<svg width="3103" height="639" viewBox="0 0 3103 639" fill="none" xmlns="http://www.w3.org/2000/svg">
<path d="M751.59 358.084C751.59 363.596 746.976 368.082 741.465 368.082H546.38C551.251 416.276 587.525 460.241 638.539 460.241C673.403 460.241 699.294 446.91 718.777 419.096C721.597 415.251 725.827 412.815 731.21 415.123C734.158 416.404 736.209 419.096 736.722 422.172C737.235 425.377 736.337 427.171 735.44 428.966C715.829 463.189 676.735 479.98 638.411 479.98C572.784 479.98 526 421.275 526 358.469C526 295.662 572.784 236.957 638.411 236.957C704.037 236.829 751.462 295.406 751.59 358.084ZM730.698 348.599C726.468 300.405 689.553 256.44 638.539 256.44C587.525 256.44 551.251 300.405 546.38 348.599H730.698ZM988.332 241.7C993.972 241.7 998.074 246.571 998.074 251.441C998.074 257.081 993.844 261.183 988.332 261.183H936.036V466.393C936.036 471.264 931.806 476.135 926.295 476.135C920.655 476.135 916.553 471.264 916.553 466.393V261.183H866.308C860.669 261.183 856.567 256.953 856.567 251.441C856.567 246.571 860.797 241.7 866.308 241.7H916.553V166.589C916.553 161.846 919.758 157.488 924.372 156.719C930.909 155.694 936.036 160.18 936.036 166.332V241.7H988.332ZM1307.36 340.908V465.24C1307.36 470.879 1302.49 474.981 1297.62 474.981C1291.98 474.981 1287.88 470.751 1287.88 465.24V340.908C1287.88 298.995 1264.17 257.081 1217.38 257.081C1157.4 257.081 1131.51 309.505 1134.97 363.211C1134.97 364.621 1135.61 370.902 1135.61 371.543V464.855C1135.61 469.597 1132.4 473.956 1127.79 474.725C1121.25 475.75 1116.12 471.264 1116.12 465.111V56.7414C1116.12 51.8707 1120.35 47 1125.87 47C1131.51 47 1135.61 51.8707 1135.61 56.7414V287.843C1152.4 257.85 1182.39 237.598 1217.26 237.598C1274.55 237.598 1307.36 287.843 1307.36 340.908ZM1657.16 358.084C1657.16 363.596 1652.54 368.082 1647.03 368.082H1451.82C1456.69 416.276 1492.96 460.241 1543.98 460.241C1578.84 460.241 1604.73 446.91 1624.22 419.096C1627.04 415.251 1631.26 412.815 1636.65 415.123C1639.6 416.404 1641.65 419.096 1642.16 422.172C1642.67 425.377 1641.78 427.171 1640.88 428.966C1621.27 463.189 1582.17 479.98 1543.85 479.98C1478.22 479.98 1431.44 421.275 1431.44 358.469C1431.44 295.662 1478.22 236.957 1543.85 236.957C1609.6 236.829 1657.03 295.406 1657.16 358.084ZM1636.14 348.599C1631.91 300.405 1594.99 256.44 1543.98 256.44C1492.96 256.44 1456.69 300.405 1451.82 348.599H1636.14ZM1896.59 250.8C1896.59 257.081 1893.13 260.542 1887.49 261.311C1830.19 269.642 1804.43 316.427 1804.43 370.902V464.214C1804.43 468.957 1801.23 473.315 1796.61 474.084C1790.08 475.109 1784.95 470.623 1784.95 464.47V251.826C1784.95 247.083 1788.15 242.725 1792.77 241.956C1799.3 240.931 1804.43 245.417 1804.43 251.57V294.893C1820.45 267.72 1852.63 241.828 1886.08 241.828C1890.95 241.7 1896.59 245.289 1896.59 250.8ZM2217.03 358.084C2217.03 363.596 2212.42 368.082 2206.91 368.082H2011.82C2016.69 416.276 2052.97 460.241 2103.98 460.241C2138.84 460.241 2164.73 446.91 2184.22 419.096C2187.04 415.251 2191.27 412.815 2196.65 415.123C2199.6 416.404 2201.65 419.096 2202.16 422.172C2202.68 425.377 2201.78 427.171 2200.88 428.966C2181.27 463.189 2142.18 479.98 2103.85 479.98C2038.22 479.98 1991.44 421.275 1991.44 358.469C1991.44 295.662 2038.22 236.957 2103.85 236.957C2169.48 236.829 2216.9 295.406 2217.03 358.084ZM2196.14 348.599C2191.91 300.405 2154.99 256.44 2103.98 256.44C2052.97 256.44 2016.69 300.405 2011.82 348.599H2196.14ZM2531.96 253.236V466.393C2531.96 472.033 2527.09 476.135 2522.22 476.135C2516.58 476.135 2512.48 471.905 2512.48 466.393V425.889C2496.46 458.062 2467.74 481.005 2431.47 481.005C2373.53 481.005 2341.36 430.76 2341.36 377.695V252.723C2341.36 247.852 2345.59 242.982 2351.1 242.982C2356.74 242.982 2360.84 247.852 2360.84 252.723V377.695C2360.84 419.609 2384.56 461.522 2431.34 461.522C2496.97 461.522 2512.35 400.126 2512.35 332.321V252.723C2512.35 247.083 2517.99 241.315 2524.91 243.366C2529.14 244.776 2531.96 248.878 2531.96 253.236ZM3025.44 340.139V465.111C3025.44 470.751 3020.57 474.853 3015.7 474.853C3010.06 474.853 3005.96 470.623 3005.96 465.111V340.139C3005.96 298.226 2982.24 257.081 2935.46 257.081C2876.75 257.081 2854.45 319.887 2854.45 368.723V465.111C2854.45 470.751 2849.58 474.853 2844.71 474.853C2839.07 474.853 2834.97 470.623 2834.97 465.111V340.139C2834.97 298.226 2811.26 257.081 2764.47 257.081C2705.13 257.081 2680.64 303.865 2682.82 366.031C2682.82 367.441 2683.46 370.261 2682.82 370.902V464.855C2682.82 469.597 2679.62 473.956 2674.88 474.725C2668.34 475.75 2663.21 471.264 2663.21 465.111V251.826C2663.21 247.083 2666.42 242.725 2671.03 241.956C2677.57 240.931 2682.7 245.417 2682.7 251.57V287.202C2699.49 257.209 2729.48 237.598 2764.34 237.598C2804.08 237.598 2834.84 262.721 2847.4 299.764C2863.42 263.49 2894.83 237.598 2935.33 237.598C2992.63 237.598 3025.44 287.074 3025.44 340.139Z" fill="white"/>
<g opacity="0.6">
<mask id="mask0_6095_68" style="mask-type:luminance" maskUnits="userSpaceOnUse" x="78" y="263" width="319" height="167">
<path d="M78 263.596H396.097V429.93H78V263.596Z" fill="white"/>
</mask>
<g mask="url(#mask0_6095_68)">
<path d="M237.08 263.596L78 335.945L237.08 429.93L396.097 335.945L237.08 263.596Z" fill="white"/>
</g>
</g>
<g opacity="0.45">
<mask id="mask1_6095_68" style="mask-type:luminance" maskUnits="userSpaceOnUse" x="78" y="72" width="160" height="358">
<path d="M78 72H237.08V429.93H78V72Z" fill="white"/>
</mask>
<g mask="url(#mask1_6095_68)">
<path d="M78 335.945L237.08 429.93V72L78 335.945Z" fill="white"/>
</g>
</g>
<g opacity="0.8">
<mask id="mask2_6095_68" style="mask-type:luminance" maskUnits="userSpaceOnUse" x="237" y="72" width="160" height="358">
<path d="M237.078 72H396.158V429.93H237.078V72Z" fill="white"/>
</mask>
<g mask="url(#mask2_6095_68)">
<path d="M237.078 72V429.93L396.095 335.945L237.078 72Z" fill="white"/>
</g>
</g>
<g opacity="0.45">
<mask id="mask3_6095_68" style="mask-type:luminance" maskUnits="userSpaceOnUse" x="78" y="366" width="160" height="225">
<path d="M78 366.085H237.08V590.198H78V366.085Z" fill="white"/>
</mask>
<g mask="url(#mask3_6095_68)">
<path d="M78 366.085L237.08 590.198V460.07L78 366.085Z" fill="white"/>
</g>
</g>
<g opacity="0.8">
<mask id="mask4_6095_68" style="mask-type:luminance" maskUnits="userSpaceOnUse" x="237" y="366" width="160" height="225">
<path d="M237.078 366.085H396.221V590.198H237.078V366.085Z" fill="white"/>
</mask>
<g mask="url(#mask4_6095_68)">
<path d="M237.078 460.07V590.198L396.221 366.085L237.078 460.07Z" fill="white"/>
</g>
</g>
</svg>
