<svg width="2238" height="419" viewBox="0 0 2238 419" fill="none" xmlns="http://www.w3.org/2000/svg">
<rect width="418.5" height="418.5" rx="35.154" fill="#FCFCFC"/>
<path d="M182.893 172.833C205.818 172.833 228.743 172.856 251.664 172.792C253.443 172.787 253.925 173.211 253.897 175.002C253.787 182.287 253.81 189.577 253.888 196.867C253.906 198.362 253.503 198.781 251.99 198.763C245.189 198.681 238.388 198.804 231.587 198.676C229.775 198.64 229.284 199.237 229.229 200.886C228.863 211.571 228.312 222.246 228.055 232.93C227.725 246.581 227.615 260.232 227.418 273.882C227.404 274.712 227.468 275.55 227.542 276.379C228.289 284.453 234.187 288.731 242.217 287.023C242.588 286.945 242.951 286.818 243.322 286.731C247.206 285.806 247.17 285.815 247.77 289.638C248.747 295.853 249.747 302.063 250.816 308.264C251.026 309.481 250.976 310.155 249.623 310.652C238.525 314.707 227.349 314.811 216.228 311.021C206.648 307.754 202.025 300.076 199.228 291.014C196.564 282.38 196.774 273.481 196.94 264.61C197.302 244.968 197.944 225.331 197.916 205.679C197.916 203.861 197.948 202.039 198.081 200.225C198.169 199.009 197.719 198.704 196.536 198.708C182.627 198.745 168.722 198.767 154.813 198.69C152.965 198.681 153.373 199.724 153.359 200.717C153.189 213.384 153.13 226.055 152.836 238.721C152.424 256.532 151.713 274.333 150.663 292.121C150.305 298.176 149.938 304.232 149.631 310.287C149.557 311.745 149.2 312.337 147.494 312.214C137.831 311.531 128.159 310.961 118.483 310.451C116.96 310.369 117.002 309.677 117.112 308.578C117.942 300.354 118.763 292.13 119.538 283.902C120.904 269.326 121.693 254.714 122.252 240.093C122.752 227.057 123.101 214.017 123.151 200.973C123.161 199 122.587 198.658 120.753 198.685C112.805 198.79 104.858 198.69 96.9104 198.767C95.397 198.781 94.9935 198.366 95.0118 196.872C95.0898 189.887 95.0944 182.902 95.0118 175.918C94.9935 174.491 95.4383 174.236 96.7683 174.104C115.662 172.232 134.616 172.961 153.547 172.851C163.329 172.797 173.111 172.842 182.893 172.842V172.833ZM326.681 161.775C330.538 158.098 334.262 154.284 337.674 150.193C341.673 145.4 345.337 140.369 348.043 134.72C356.174 117.761 348.928 98.3787 331.437 92.1274C312.607 85.3978 294.364 90.0862 280.308 104.448C279.331 105.445 280.06 105.819 280.629 106.384C283.651 109.391 286.673 112.398 289.695 115.406C291.3 117 292.945 117.067 294.63 115.606C300.555 110.508 306.943 106.785 315.285 107.642C322.801 108.416 327.548 112.503 328.713 119.862C329.456 124.55 328.218 128.878 326.012 132.97C322.843 138.843 318.459 143.8 313.808 148.521C304.127 158.344 293.548 167.179 282.995 176.041C281.276 177.485 280.367 178.893 280.546 181.194C280.757 183.909 280.684 186.657 280.565 189.386C280.491 190.99 280.799 191.896 282.642 191.518C282.936 191.459 283.252 191.509 283.559 191.509C307.163 191.509 330.767 191.514 354.371 191.486C355.247 191.486 356.559 192.147 356.527 190.192C356.435 184.502 356.472 178.811 356.513 173.115C356.518 172.145 356.27 171.808 355.243 171.817C345.241 171.908 335.234 171.885 325.232 172.049C321.825 172.109 318.422 172.614 314.716 172.942C318.931 169.01 322.843 165.42 326.686 161.761L326.681 161.775Z" fill="#0E0F0F"/>
<path d="M631.899 324.75H594.733V94.1833H692.81C740.988 94.1833 776.433 122.746 776.433 172.301C776.433 221.855 740.988 250.418 692.81 250.418H631.899V324.75ZM697.283 127.564H631.899V217.038H697.283C727.567 217.038 739.611 205.337 739.611 172.301C739.611 139.264 727.567 127.564 697.283 127.564ZM837.489 132.038H800.667L800.323 94.1833H837.489V132.038ZM837.833 324.75H800.667V152.685H837.833V324.75ZM1031.11 328.191C964.696 328.191 935.789 297.564 935.789 253.171V247.321H972.267V251.106C972.267 279.669 984.312 294.122 1032.49 294.122C1066.56 294.122 1078.95 284.831 1078.95 263.495C1078.95 242.503 1072.06 234.932 1036.62 227.706L997.388 219.791C957.814 212.22 936.478 192.948 936.478 156.471C936.478 122.402 962.976 90.7421 1022.51 90.7421C1086.17 90.7421 1111.64 126.531 1111.64 167.483V171.612H1075.16V167.827C1075.16 139.608 1062.77 124.811 1021.48 124.811C987.409 124.811 973.644 134.446 973.644 154.75C973.644 175.742 982.935 181.592 1014.59 188.475L1053.83 196.734C1097.19 205.681 1116.11 227.361 1116.11 262.118C1116.11 298.252 1089.96 328.191 1031.11 328.191ZM1208.57 328.191C1160.73 328.191 1135.61 293.434 1135.61 239.406C1135.61 185.033 1161.76 150.276 1209.94 150.276C1239.54 150.276 1259.15 161.977 1267.41 181.936H1268.79V153.718H1302.86V384.284H1266.04V298.252H1265C1257.43 313.738 1238.16 328.191 1208.57 328.191ZM1172.78 239.406C1172.78 281.39 1186.54 296.531 1219.23 296.531C1249.52 296.531 1266.04 283.11 1266.04 254.548V223.92C1266.04 195.357 1249.52 181.936 1219.23 181.936C1186.2 181.936 1172.78 197.078 1172.78 239.406ZM1403.09 328.191C1358.35 328.191 1338.39 298.252 1338.39 259.365V153.718H1375.56V252.827C1375.56 283.454 1387.26 296.187 1416.86 296.187C1445.42 296.187 1461.59 283.799 1461.59 250.074V153.718H1498.76V324.75H1464.35V290.681H1462.97C1454.71 310.297 1436.47 328.191 1403.09 328.191ZM1581.48 328.191C1550.85 328.191 1527.11 312.361 1527.11 282.422C1527.11 254.203 1547.76 239.406 1584.23 234.244L1644.11 225.297V216.005C1644.11 190.54 1632.41 182.969 1605.57 182.969C1578.38 182.969 1567.72 191.572 1567.72 214.284V219.446H1531.93V216.005C1531.93 177.807 1561.87 150.276 1607.63 150.276C1655.47 150.276 1679.56 179.183 1679.56 220.823V324.75H1645.14V297.908H1643.42C1633.44 314.082 1613.83 328.191 1581.48 328.191ZM1563.24 279.669C1563.24 293.09 1571.85 298.596 1593.53 298.596C1617.61 298.596 1644.11 288.961 1644.11 254.548V251.45L1589.74 259.71C1570.12 262.463 1563.24 266.936 1563.24 279.669ZM1752.31 324.75H1715.15V152.685H1749.21V179.872H1750.93C1757.82 164.042 1773.65 150.276 1798.77 150.276C1834.56 150.276 1848.32 176.43 1848.32 208.434V219.791H1811.16V212.908C1811.16 190.195 1804.62 181.936 1782.94 181.936C1760.57 181.936 1752.31 190.54 1752.31 213.252V324.75ZM1948.14 328.191C1891.7 328.191 1865.2 292.402 1865.2 239.062C1865.2 186.066 1896.86 150.276 1947.8 150.276C1993.91 150.276 2026.26 177.807 2026.26 224.608C2026.26 233.556 2025.22 242.847 2024.19 248.009H1899.96C1901.34 279.325 1912.69 295.155 1948.48 295.155C1977.05 295.155 1988.06 285.519 1988.06 270.033V267.28H2024.88V270.378C2024.88 305.479 1994.25 328.191 1948.14 328.191ZM1947.11 181.592C1914.76 181.592 1902.37 196.734 1900.31 223.232H1990.81C1992.19 193.981 1976.36 181.592 1947.11 181.592ZM2126.08 328.191C2077.21 328.191 2050.71 293.434 2050.71 239.062C2050.71 185.033 2076.87 150.276 2124.01 150.276C2154.29 150.276 2172.53 164.73 2180.1 180.216H2181.14V94.1833H2217.96V324.75H2183.89V296.531H2182.51C2174.25 316.147 2155.33 328.191 2126.08 328.191ZM2087.88 239.062C2087.88 281.39 2101.3 296.531 2134.34 296.531C2164.62 296.531 2181.14 283.11 2181.14 254.548V223.92C2181.14 195.357 2164.62 181.936 2134.34 181.936C2101.64 181.936 2087.88 197.078 2087.88 239.062Z" fill="#FCFCFC"/>
</svg>
