<svg width="2568" height="643" viewBox="0 0 2568 643" fill="none" xmlns="http://www.w3.org/2000/svg">
<path d="M931.103 341H1013.6C1025.2 341 1034.6 350.5 1034.6 362.1C1034.6 373.8 1025.2 383.2 1013.6 383.2H914.103C912.503 383.2 911.003 383.8 909.903 384.8L879.903 410.7C875.303 414.7 878.103 422.2 884.103 422.2H1008.6C1008.6 422.2 1008.7 422.2 1008.7 422.1C1008.7 422 1008.8 422 1008.8 422C1010.4 422.1 1011.9 422.2 1013.5 422.2C1046.5 422.2 1073.3 395.3 1073.3 362.1C1073.3 330.6 1049.2 304.7 1018.4 302.2C1018.4 302.2 1018.3 302.2 1018.3 302.1C1018.3 302 1018.3 302 1018.2 302H929.403C917.803 302 908.403 292.5 908.403 280.9C908.403 269.2 917.803 259.8 929.403 259.8H1028.7C1030.3 259.8 1031.9 259.2 1033.1 258.1L1061 232.2C1065.4 228.1 1062.5 220.8 1056.6 220.8H931.103C930.603 220.8 930.003 220.8 929.503 220.8C896.503 220.8 869.703 247.7 869.703 280.9C869.703 314.1 896.503 341 929.503 341C930.003 341 930.503 341 931.103 341Z" fill="black"/>
<path d="M1411.3 220.7C1407.7 220.7 1404.8 223.6 1404.8 227.3V415.7C1404.8 419.3 1407.7 422.3 1411.3 422.3H1562.3C1564.1 422.3 1565.8 421.5 1567.1 420.2L1586 399.9C1589.9 395.7 1587 388.8 1581.2 388.8H1449.4C1445.8 388.8 1442.9 385.9 1442.9 382.2V227.2C1442.9 223.6 1440 220.6 1436.4 220.6H1411.3V220.7Z" fill="black"/>
<path fill-rule="evenodd" clip-rule="evenodd" d="M1169.5 220.7C1169.5 220.8 1169.5 220.8 1169.5 220.7C1150.2 221.6 1134.7 237.1 1133.8 256.4V383.1C1133.8 383.6 1133.8 384.2 1133.8 384.7C1133.8 404.8 1149.6 421.2 1169.5 422H1306.5C1326.3 421.1 1342.2 404.7 1342.2 384.7C1342.2 384.2 1342.2 383.6 1342.2 383.1V256.5C1341.4 237.2 1325.9 221.6 1306.6 220.8H1169.5V220.7ZM1195.1 256.5C1195 256.5 1195 256.5 1195.1 256.5C1183 257 1173.3 266.8 1172.8 279V358.7C1172.8 359 1172.8 359.4 1172.8 359.7C1172.8 372.3 1182.7 382.7 1195.1 383.2H1281C1293.4 382.7 1303.3 372.3 1303.3 359.7C1303.3 359.4 1303.3 359 1303.3 358.7V279C1302.8 266.8 1293.1 257.1 1281 256.5H1195.1Z" fill="black"/>
<path fill-rule="evenodd" clip-rule="evenodd" d="M1805.5 415.7C1805.5 419.3 1808.4 422.3 1812 422.3H1837.6C1841.2 422.3 1844.1 419.4 1844.1 415.7V259.8C1844.1 259.3 1844.1 258.7 1844.1 258.2C1844.1 238.1 1828.4 221.7 1808.8 220.9H1677.3C1676.8 220.9 1676.2 220.9 1675.7 220.9C1655.3 220.9 1638.8 237.6 1638.8 258.3C1638.8 258.8 1638.8 259.4 1638.8 259.9V415.8C1638.8 419.4 1641.7 422.4 1645.3 422.4H1670.9C1674.5 422.4 1677.4 419.5 1677.4 415.8V350.9C1677.4 347.3 1680.3 344.3 1683.9 344.3H1799.3C1802.9 344.3 1805.8 347.2 1805.8 350.9V415.7H1805.5ZM1677.2 308.4V276C1677.2 263.4 1687.3 253.2 1699.7 253.2H1783.1C1795.5 253.2 1805.6 263.4 1805.6 276V308.4C1805.6 312 1802.7 315 1799.1 315H1683.7C1680.1 315 1677.2 312.1 1677.2 308.4Z" fill="black"/>
<path fill-rule="evenodd" clip-rule="evenodd" d="M2346 422.3C2342.4 422.3 2339.5 419.4 2339.5 415.7V350.8C2339.5 347.2 2336.6 344.2 2333 344.2H2216.3C2212.7 344.2 2209.8 347.1 2209.8 350.8V415.7C2209.8 419.3 2206.9 422.3 2203.3 422.3H2177.5C2173.9 422.3 2171 419.4 2171 415.7V259.8C2171 259.3 2171 258.7 2171 258.2C2171 237.6 2187.7 220.8 2208.3 220.8C2208.8 220.8 2209.4 220.8 2209.9 220.8H2342.8C2362.6 221.7 2378.5 238.1 2378.5 258.1C2378.5 258.6 2378.5 259.2 2378.5 259.7V415.6C2378.5 419.2 2375.6 422.2 2372 422.2H2346V422.3ZM2209.8 276V308.4C2209.8 312 2212.7 315 2216.3 315H2333C2336.6 315 2339.5 312.1 2339.5 308.4V276C2339.5 263.4 2329.3 253.2 2316.8 253.2H2232.5C2219.9 253.2 2209.8 263.4 2209.8 276Z" fill="black"/>
<path d="M1940.5 220.7C1942.4 220.7 1944.2 221.5 1945.4 223L2060.2 359.9C2064.1 364.5 2071.6 361.7 2071.6 355.6V227.3C2071.6 223.7 2074.5 220.7 2078.1 220.7H2103.7C2107.3 220.7 2110.2 223.6 2110.2 227.3V415.7C2110.2 419.3 2107.3 422.3 2103.7 422.3H2071.9C2071.8 422.3 2071.7 422.2 2071.7 422.1C2071.7 422 2071.7 422 2071.6 421.9L1954.8 286C1950.9 281.4 1943.4 284.3 1943.4 290.3V415.8C1943.4 419.4 1940.5 422.4 1936.9 422.4H1911.1C1907.5 422.4 1904.6 419.5 1904.6 415.8V227.3C1904.6 223.7 1907.5 220.7 1911.1 220.7H1940.5Z" fill="black"/>
<path d="M274.398 429.2C277.598 426 281.898 424.2 286.398 424.2H702.898C710.498 424.2 714.298 433.4 708.898 438.7L626.598 521C623.398 524.2 619.098 526 614.598 526H198.098C190.498 526 186.698 516.8 192.098 511.5L274.398 429.2Z" fill="black"/>
<path d="M274.398 122C277.598 118.8 281.898 117 286.398 117H702.898C710.498 117 714.298 126.2 708.898 131.5L626.598 213.7C623.398 216.9 619.098 218.7 614.598 218.7H198.098C190.498 218.7 186.698 209.5 192.098 204.2L274.398 122Z" fill="black"/>
<path d="M626.598 274.6C623.398 271.4 619.098 269.6 614.598 269.6H198.098C190.498 269.6 186.698 278.8 192.098 284.1L274.398 366.3C277.598 369.5 281.898 371.3 286.398 371.3H702.898C710.498 371.3 714.298 362.1 708.898 356.8L626.598 274.6Z" fill="black"/>
</svg>
