<svg viewBox="0 0 32 32"
  xmlns="http://www.w3.org/2000/svg">
  <rect width="100%" height="100%" rx="12%" ry="12%" fill="black" />
  <path
    fill="white"
    d="M12.7209 11.3352C14.4742 11.3352 16.2274 11.3369 17.9804 11.3321C18.1164 11.3317 18.1533 11.3638 18.1512 11.4993C18.1427 12.0505 18.1445 12.6021 18.1505 13.1537C18.1519 13.2668 18.121 13.2985 18.0053 13.2971C17.4851 13.2909 16.965 13.3003 16.4449 13.2906C16.3064 13.2878 16.2688 13.333 16.2646 13.4578C16.2366 14.2662 16.1945 15.074 16.1748 15.8824C16.1496 16.9153 16.1412 17.9482 16.1261 18.9811C16.125 19.0438 16.1299 19.1072 16.1356 19.17C16.1927 19.7809 16.6438 20.1046 17.2579 19.9753C17.2863 19.9695 17.314 19.9598 17.3424 19.9533C17.6394 19.8833 17.6366 19.884 17.6826 20.1732C17.7573 20.6435 17.8337 21.1134 17.9155 21.5826C17.9316 21.6746 17.9277 21.7256 17.8243 21.7632C16.9755 22.07 16.1208 22.078 15.2703 21.7911C14.5377 21.5439 14.1841 20.963 13.9702 20.2773C13.7664 19.624 13.7826 18.9507 13.7952 18.2795C13.8229 16.7933 13.872 15.3074 13.8699 13.8205C13.8699 13.6829 13.8723 13.545 13.8825 13.4078C13.8892 13.3158 13.8548 13.2927 13.7643 13.293C12.7006 13.2958 11.6372 13.2975 10.5735 13.2916C10.4321 13.2909 10.4633 13.3699 10.4623 13.445C10.4493 14.4035 10.4447 15.3622 10.4223 16.3206C10.3907 17.6683 10.3364 19.0152 10.2561 20.3611C10.2287 20.8193 10.2006 21.2775 10.1771 21.7356C10.1715 21.846 10.1442 21.8908 10.0137 21.8815C9.27474 21.8297 8.53506 21.7867 7.79504 21.748C7.6786 21.7418 7.68176 21.6894 7.69017 21.6063C7.75365 20.9841 7.81643 20.3618 7.87571 19.7392C7.98022 18.6363 8.04054 17.5307 8.08333 16.4244C8.12156 15.4381 8.14822 14.4514 8.15207 13.4644C8.15278 13.3151 8.10894 13.2892 7.96865 13.2913C7.36085 13.2992 6.75305 13.2916 6.14524 13.2975C6.02951 13.2985 5.99864 13.2672 6.00005 13.1541C6.00601 12.6256 6.00636 12.0971 6.00005 11.5686C5.99864 11.4607 6.03266 11.4414 6.13437 11.4314C7.57935 11.2897 9.02888 11.3448 10.4767 11.3365C11.2247 11.3324 11.9728 11.3359 12.7209 11.3359V11.3352ZM23.7175 10.4985C24.0124 10.2202 24.2972 9.93168 24.5581 9.6221C24.864 9.25942 25.1442 8.87881 25.3511 8.45132C25.9729 7.16816 25.4188 5.70158 24.0812 5.22858C22.6411 4.71939 21.2459 5.07414 20.171 6.16079C20.0963 6.23629 20.152 6.26456 20.1955 6.30731C20.4266 6.53485 20.6578 6.76238 20.8889 6.98992C21.0116 7.11058 21.1374 7.11564 21.2663 7.00509C21.7194 6.61931 22.208 6.33765 22.8459 6.40246C23.4207 6.46107 23.7837 6.77031 23.8728 7.32709C23.9296 7.68184 23.8349 8.00935 23.6663 8.31894C23.4239 8.76332 23.0886 9.13841 22.733 9.49557C21.9926 10.2389 21.1835 10.9073 20.3765 11.5779C20.245 11.6872 20.1755 11.7937 20.1892 11.9678C20.2053 12.1733 20.1997 12.3811 20.1906 12.5876C20.185 12.709 20.2085 12.7776 20.3495 12.749C20.3719 12.7445 20.3961 12.7483 20.4196 12.7483C22.2248 12.7483 24.03 12.7486 25.8351 12.7466C25.9021 12.7466 26.0024 12.7966 26 12.6487C25.9929 12.2181 25.9957 11.7875 25.9989 11.3565C25.9993 11.2831 25.9803 11.2576 25.9018 11.2583C25.1368 11.2652 24.3716 11.2635 23.6066 11.2759C23.346 11.2804 23.0858 11.3186 22.8024 11.3434C23.1247 11.0459 23.4239 10.7743 23.7178 10.4974L23.7175 10.4985Z" />
</svg>