<svg width="46" height="46" viewBox="0 0 46 46" fill="none" xmlns="http://www.w3.org/2000/svg">
<g clip-path="url(#clip0_6269_71)">
<path d="M40.48 0H5.52C2.47139 0 0 2.47139 0 5.52V40.48C0 43.5286 2.47139 46 5.52 46H40.48C43.5286 46 46 43.5286 46 40.48V5.52C46 2.47139 43.5286 0 40.48 0Z" fill="white"/>
<path d="M18.2863 16.2943C20.8067 16.2943 23.3269 16.2968 25.8468 16.2899C26.0423 16.2893 26.0954 16.3355 26.0923 16.5302C26.0801 17.3226 26.0827 18.1155 26.0913 18.9084C26.0933 19.071 26.0489 19.1166 25.8826 19.1146C25.1348 19.1057 24.3872 19.1192 23.6395 19.1052C23.4404 19.1012 23.3864 19.1662 23.3804 19.3456C23.3401 20.5077 23.2796 21.6689 23.2513 22.8309C23.215 24.3157 23.203 25.8005 23.1813 27.2853C23.1797 27.3755 23.1867 27.4666 23.1949 27.5569C23.277 28.435 23.9255 28.9004 24.8082 28.7145C24.849 28.7062 24.8889 28.6922 24.9297 28.6829C25.3566 28.5822 25.3526 28.5832 25.4187 28.999C25.5261 29.675 25.6359 30.3505 25.7535 31.025C25.7767 31.1572 25.7711 31.2305 25.6224 31.2846C24.4023 31.7256 23.1736 31.7371 21.951 31.3247C20.8979 30.9694 20.3896 30.1343 20.0822 29.1486C19.7892 28.2095 19.8125 27.2416 19.8306 26.2768C19.8704 24.1404 19.941 22.0044 19.938 19.867C19.938 19.6692 19.9414 19.4709 19.9561 19.2737C19.9657 19.1415 19.9163 19.1083 19.7862 19.1087C18.2571 19.1127 16.7285 19.1152 15.1994 19.1067C14.9961 19.1057 15.041 19.2192 15.0396 19.3272C15.0209 20.705 15.0143 22.0832 14.9821 23.4609C14.9366 25.3982 14.8586 27.3343 14.7431 29.2691C14.7037 29.9277 14.6634 30.5864 14.6296 31.2449C14.6215 31.4036 14.5823 31.468 14.3947 31.4547C13.3324 31.3802 12.2691 31.3184 11.2054 31.2627C11.038 31.2538 11.0425 31.1785 11.0546 31.0591C11.1459 30.1646 11.2361 29.2701 11.3213 28.3751C11.4716 26.7897 11.5583 25.2004 11.6198 23.6101C11.6747 22.1923 11.7131 20.7739 11.7186 19.3551C11.7196 19.1405 11.6566 19.1032 11.4549 19.1062C10.5812 19.1176 9.7075 19.1067 8.83378 19.1152C8.66741 19.1166 8.62304 19.0716 8.62507 18.909C8.63363 18.1493 8.63414 17.3896 8.62507 16.6299C8.62304 16.4748 8.67194 16.447 8.81815 16.4326C10.8953 16.2289 12.979 16.3081 15.0602 16.2962C16.1355 16.2903 17.2109 16.2943 18.2863 16.2943ZM34.0939 15.0916C34.5178 14.6915 34.9272 14.2768 35.3023 13.8318C35.742 13.3104 36.1448 12.7633 36.4422 12.1488C37.336 10.3042 36.5395 8.19602 34.6167 7.51608C32.5466 6.78412 30.541 7.29407 28.9958 8.85613C28.8884 8.96467 28.9685 9.0053 29.031 9.06676C29.3632 9.39385 29.6956 9.72092 30.0278 10.048C30.2042 10.2215 30.385 10.2287 30.5703 10.0698C31.2216 9.51526 31.924 9.11037 32.841 9.20353C33.6673 9.28779 34.1891 9.73232 34.3171 10.5327C34.3988 11.0426 34.2627 11.5134 34.0203 11.9585C33.6719 12.5973 33.1899 13.1365 32.6787 13.6499C31.6144 14.7184 30.4513 15.6792 29.2912 16.6432C29.1022 16.8003 29.0023 16.9534 29.022 17.2037C29.0451 17.4991 29.0371 17.7978 29.024 18.0947C29.0159 18.2692 29.0497 18.3678 29.2524 18.3267C29.2846 18.3202 29.3194 18.3257 29.3532 18.3257C31.9481 18.3257 34.5431 18.3261 37.138 18.3232C37.2343 18.3232 37.3784 18.3951 37.375 18.1825C37.3648 17.5635 37.3688 16.9445 37.3734 16.325C37.374 16.2195 37.3467 16.1828 37.2338 16.1838C36.1341 16.1937 35.0342 16.1913 33.9345 16.2091C33.5599 16.2156 33.1858 16.2705 32.7784 16.3061C33.2418 15.8785 33.6719 15.4881 34.0943 15.09L34.0939 15.0916Z" fill="black"/>
</g>
<defs>
<clipPath id="clip0_6269_71">
<rect width="46" height="46" fill="white"/>
</clipPath>
</defs>
</svg>
