<svg width="250" height="232" viewBox="0 0 250 232" fill="none" xmlns="http://www.w3.org/2000/svg">
<g clip-path="url(#clip0_5731_2)">
<path d="M250 123.668C250 126.318 249.916 128.947 249.75 131.555H215.574V127.162L215.358 126.946H212.555C212.401 126.946 212.442 125.718 212.483 124.49C212.512 123.613 212.542 122.737 212.5 122.307H249.992C249.998 122.76 250 123.214 250 123.668Z" fill="#2B142D"/>
<path d="M250 123.668C250 126.318 249.916 128.947 249.75 131.555H215.574V127.162L215.358 126.946H212.555C212.401 126.946 212.442 125.718 212.483 124.49C212.512 123.613 212.542 122.737 212.5 122.307H249.992C249.998 122.76 250 123.214 250 123.668Z" fill="url(#paint0_linear_5731_2)"/>
<path d="M135.496 122.307V123.417L135.712 123.633H138.443L138.659 123.849V126.73L138.875 126.946H141.606L141.966 127.09V129.971L148.291 129.957V131.555H132.374C132.397 130.702 132.479 129.971 132.621 129.971H135.28C135.442 129.971 135.514 126.802 135.352 126.802H132.549L132.333 126.586V122.307H135.496Z" fill="#2B142D"/>
<path d="M135.496 122.307V123.417L135.712 123.633H138.443L138.659 123.849V126.73L138.875 126.946H141.606L141.966 127.09V129.971L148.291 129.957V131.555H132.374C132.397 130.702 132.479 129.971 132.621 129.971H135.28C135.442 129.971 135.514 126.802 135.352 126.802H132.549L132.333 126.586V122.307H135.496Z" fill="url(#paint1_linear_5731_2)"/>
<path d="M37.3038 122.307V123.702L37.0882 123.918H34.3566C33.9828 123.918 34.0724 128.022 34.1846 131.555H0.250089C0.0841973 128.947 0 126.318 0 123.668C0 123.214 0.00247636 122.76 0.00741643 122.307H37.3038Z" fill="#2B142D"/>
<path d="M37.3038 122.307V123.702L37.0882 123.918H34.3566C33.9828 123.918 34.0724 128.022 34.1846 131.555H0.250089C0.0841973 128.947 0 126.318 0 123.668C0 123.214 0.00247636 122.76 0.00741643 122.307H37.3038Z" fill="url(#paint2_linear_5731_2)"/>
<path d="M209.253 121.074C209.23 120.35 209.241 119.303 209.253 118.244C209.273 116.348 209.294 114.413 209.122 114.21C208.875 113.916 207.826 113.995 207.057 114.054C206.626 114.087 206.282 114.113 206.22 114.062C206.054 113.926 206.057 113.401 206.061 112.81C206.067 111.889 206.074 110.809 205.438 110.809H202.994L202.778 110.593V107.784C202.778 107.694 202.331 107.694 201.773 107.693C200.846 107.693 199.616 107.692 199.616 107.28V104.687L199.4 104.471H196.668C196.557 104.471 196.309 103.646 196.309 103.534V101.374L196.093 101.158H193.362L193.146 100.942V97.9888C193.146 97.9134 193.835 97.9254 194.584 97.9388C195.476 97.9544 196.453 97.9718 196.453 97.8447V94.6756H199.687L199.903 94.8916V100.942C199.903 101.342 202.128 101.232 203.938 101.142C205.181 101.08 206.229 101.028 206.229 101.158V104.111L206.445 104.327H209.392V107.28C209.392 107.643 215.124 107.502 215.574 107.352V95.1798C215.574 95.0294 215.22 94.6756 215.07 94.6756H212.627L212.411 94.4592V91.8666C212.411 91.8363 211.961 91.5066 211.907 91.5066H209.464L209.248 91.2902V88.8413C209.248 88.2028 208.262 88.2519 207.417 88.2943C206.904 88.3202 206.443 88.3429 206.286 88.2082C206.031 87.9905 206.056 87.3998 206.082 86.7854C206.119 85.9279 206.157 85.024 205.438 85.024H203.138L202.922 84.808V82.215C202.922 82.1909 202.587 81.855 202.563 81.855H199.975L199.759 81.639V79.046C199.759 78.6462 197.733 78.6467 195.891 78.6467C194.51 78.6471 193.233 78.6471 192.994 78.4789C192.93 78.4329 192.933 78.0109 192.936 77.4992C192.942 76.6358 192.949 75.5169 192.643 75.5169H184.017C183.736 75.5169 183.728 74.8535 183.719 74.1347C183.707 73.233 183.694 72.2439 183.142 72.3657L161.23 72.4915V69.3943L161.446 69.1784H164.177L164.393 68.9624V59.7431L164.609 59.5272H167.843V50.2356C167.843 49.5249 168.282 49.627 168.584 49.698C168.66 49.7158 168.728 49.7314 168.778 49.7314H180.423L180.639 49.5155V46.6342L180.854 46.4183H183.801V44.3296C183.801 44.2156 184.032 43.2493 184.161 43.2493H187.036L187.252 43.0331V37.1991L161.233 37.5592V39.8671C161.233 40.115 158.824 40.1383 156.434 40.1613C154.08 40.184 151.745 40.2065 151.745 40.4433V43.1802L151.529 43.3963H148.653L148.294 43.5403V46.6374L148.078 46.8537H145.491L145.275 47.0697V49.6627C145.275 49.7827 144.919 49.9175 144.772 49.8934L138.949 49.8787V52.5435C138.949 52.5708 138.832 53.0477 138.806 53.0477H135.858C135.641 53.0477 135.596 54.0386 135.558 54.8908C135.532 55.4703 135.509 55.9856 135.436 56.082C135.291 56.2756 134.638 56.2466 133.986 56.2176C133.336 56.1891 132.688 56.1601 132.543 56.3519C132.399 56.5438 132.401 57.5195 132.403 58.3395C132.404 58.9824 132.406 59.5299 132.336 59.5299H129.82C129.67 59.5299 129.317 59.8841 129.317 60.034V62.843H126.37L126.154 63.0594V66.0125H123.063L122.848 66.2284V68.8215L122.632 69.0374H119.541V66.3725L119.397 66.0125H116.378C116.32 66.0125 116.323 65.6453 116.325 65.1554C116.332 64.1739 116.341 62.6993 115.875 62.6993H113.215C113.109 62.6993 113.141 62.0975 113.175 61.439C113.211 60.7586 113.25 60.018 113.143 59.8181C112.948 59.4522 112.145 59.4928 111.41 59.5303C110.814 59.5606 110.261 59.5888 110.115 59.3951C109.987 59.226 109.975 58.2472 109.966 57.4454C109.959 56.8815 109.953 56.4054 109.908 56.3608C109.745 56.1962 107.562 56.2368 105.347 56.2778C103.12 56.3193 100.86 56.3613 100.588 56.1958C100.464 56.1208 100.488 55.4484 100.514 54.7431C100.542 53.9824 100.571 53.1829 100.417 53.0508C100.314 52.9638 99.4427 52.9549 98.6427 52.9464C97.9758 52.9397 97.3584 52.933 97.278 52.8826C97.0892 52.7639 97.1414 52.2803 97.2003 51.7338C97.2816 50.9811 97.3758 50.1089 96.8709 49.9054C96.4852 49.7497 95.2936 49.805 94.0945 49.8608C92.7512 49.9228 91.3981 49.9857 91.1593 49.7524C91.0588 49.6547 91.0445 49.1595 91.028 48.596C91.0048 47.796 90.978 46.8591 90.695 46.7306L62.5677 46.7065C62.466 46.7364 62.3222 47.0157 62.3222 47.0697V55.8567L62.5378 56.0726H65.2691L65.4847 56.289V59.1698C65.4847 59.6878 68.5914 59.5838 71.2883 59.4942C73.1249 59.433 74.7713 59.3782 75.1173 59.5299C75.1173 59.5299 75.1173 59.5664 75.1173 59.595C75.116 60.0987 75.1111 62.6993 75.2611 62.6993H78.2802C78.4227 62.6993 78.4088 63.962 78.3927 65.3727C78.3727 67.1586 78.3499 69.1815 78.6396 69.1815H84.6057C84.7673 69.1815 84.7075 72.2426 84.5128 72.3296C83.2481 72.6115 78.3941 72.5031 73.3026 72.3894C66.7932 72.2444 59.8954 72.09 59.6115 72.7316C59.5137 72.9511 59.5454 73.3713 59.5789 73.8193C59.6298 74.4992 59.6856 75.2434 59.303 75.4477C58.7914 75.7203 56.974 75.6307 55.0954 75.5374C53.0481 75.4361 50.9271 75.3308 50.3414 75.6878C50.0383 75.8734 50.0669 76.626 50.0932 77.3314C50.1164 77.9502 50.1383 78.5329 49.9343 78.6649C49.8383 78.7265 48.9959 78.7221 47.9561 78.7171C46.1053 78.7082 43.6294 78.6962 43.6294 79.046V81.7831L43.4138 81.9991H40.826C40.4581 81.9991 40.4456 82.9628 40.4343 83.8314C40.4266 84.427 40.4194 84.978 40.2988 85.144C40.148 85.3523 39.5104 85.3278 38.8796 85.3037C38.3456 85.2832 37.8164 85.2631 37.5912 85.384C37.2294 85.5781 37.2686 86.3379 37.3046 87.0352C37.3338 87.6023 37.361 88.1274 37.1689 88.2742C37.0343 88.3768 36.5277 88.3884 35.9667 88.4018C35.1798 88.4205 34.286 88.4415 34.1618 88.7186C34.2742 89.221 34.2196 91.9608 34.1549 95.2065C34.0455 100.699 33.9073 107.64 34.5003 107.64H36.9443L37.1599 107.424V104.543L37.3756 104.327H40.1071L40.3228 104.111V101.518C40.3228 101.25 41.6354 101.228 42.5703 101.212C43.0603 101.204 43.4465 101.197 43.4857 101.158C43.6474 100.997 43.6016 99.3848 43.5574 97.8264C43.514 96.2969 43.4722 94.8197 43.6294 94.8197H49.6677C49.7249 94.8197 49.7231 95.2342 49.7209 95.7638C49.7169 96.6976 49.7115 97.9888 50.0271 97.9888H52.9021L53.1182 97.7728V91.6503H65.482C65.5503 91.6503 65.5352 91.0604 65.5182 90.3894C65.4954 89.5056 65.4691 88.4812 65.6258 88.4812H68.7164L68.932 88.6972V91.4343L69.1481 91.6503H75.0423C75.282 91.6503 75.4405 94.4775 75.2611 94.6123C75.0977 94.7341 73.3503 94.7046 71.3874 94.6716C68.7075 94.6265 65.6258 94.5748 65.6258 94.8916V97.6287C65.2486 98.0642 62.9753 98.0017 61.3271 97.9562C60.3972 97.9308 59.6664 97.9107 59.5874 97.9888C59.5441 98.0311 59.5553 98.4492 59.5695 98.9605C59.591 99.7515 59.6186 100.765 59.4588 100.957C59.2392 101.22 58.7026 101.186 58.149 101.152C57.4776 101.11 56.782 101.066 56.5981 101.548C56.4347 101.976 56.4486 103.273 56.4619 104.545C56.4758 105.885 56.4892 107.197 56.2959 107.439C56.1597 107.61 54.3066 107.573 52.3111 107.534C50.1338 107.491 47.7869 107.445 47.3164 107.661C47.0088 107.802 46.9825 108.735 46.9584 109.572C46.9378 110.299 46.9195 110.953 46.7204 110.953H43.8451C43.584 110.953 43.5984 112.901 43.6113 114.662C43.622 116.112 43.6318 117.436 43.4857 117.436H40.6822L40.4665 117.652V120.389C40.4665 120.389 40.4665 120.719 40.4645 121.074H0.0268555C1.42259 53.9717 56.8405 0 125 0C193.159 0 248.577 53.9717 249.973 121.074H209.253Z" fill="#2B142D"/>
<path d="M209.253 121.074C209.23 120.35 209.241 119.303 209.253 118.244C209.273 116.348 209.294 114.413 209.122 114.21C208.875 113.916 207.826 113.995 207.057 114.054C206.626 114.087 206.282 114.113 206.22 114.062C206.054 113.926 206.057 113.401 206.061 112.81C206.067 111.889 206.074 110.809 205.438 110.809H202.994L202.778 110.593V107.784C202.778 107.694 202.331 107.694 201.773 107.693C200.846 107.693 199.616 107.692 199.616 107.28V104.687L199.4 104.471H196.668C196.557 104.471 196.309 103.646 196.309 103.534V101.374L196.093 101.158H193.362L193.146 100.942V97.9888C193.146 97.9134 193.835 97.9254 194.584 97.9388C195.476 97.9544 196.453 97.9718 196.453 97.8447V94.6756H199.687L199.903 94.8916V100.942C199.903 101.342 202.128 101.232 203.938 101.142C205.181 101.08 206.229 101.028 206.229 101.158V104.111L206.445 104.327H209.392V107.28C209.392 107.643 215.124 107.502 215.574 107.352V95.1798C215.574 95.0294 215.22 94.6756 215.07 94.6756H212.627L212.411 94.4592V91.8666C212.411 91.8363 211.961 91.5066 211.907 91.5066H209.464L209.248 91.2902V88.8413C209.248 88.2028 208.262 88.2519 207.417 88.2943C206.904 88.3202 206.443 88.3429 206.286 88.2082C206.031 87.9905 206.056 87.3998 206.082 86.7854C206.119 85.9279 206.157 85.024 205.438 85.024H203.138L202.922 84.808V82.215C202.922 82.1909 202.587 81.855 202.563 81.855H199.975L199.759 81.639V79.046C199.759 78.6462 197.733 78.6467 195.891 78.6467C194.51 78.6471 193.233 78.6471 192.994 78.4789C192.93 78.4329 192.933 78.0109 192.936 77.4992C192.942 76.6358 192.949 75.5169 192.643 75.5169H184.017C183.736 75.5169 183.728 74.8535 183.719 74.1347C183.707 73.233 183.694 72.2439 183.142 72.3657L161.23 72.4915V69.3943L161.446 69.1784H164.177L164.393 68.9624V59.7431L164.609 59.5272H167.843V50.2356C167.843 49.5249 168.282 49.627 168.584 49.698C168.66 49.7158 168.728 49.7314 168.778 49.7314H180.423L180.639 49.5155V46.6342L180.854 46.4183H183.801V44.3296C183.801 44.2156 184.032 43.2493 184.161 43.2493H187.036L187.252 43.0331V37.1991L161.233 37.5592V39.8671C161.233 40.115 158.824 40.1383 156.434 40.1613C154.08 40.184 151.745 40.2065 151.745 40.4433V43.1802L151.529 43.3963H148.653L148.294 43.5403V46.6374L148.078 46.8537H145.491L145.275 47.0697V49.6627C145.275 49.7827 144.919 49.9175 144.772 49.8934L138.949 49.8787V52.5435C138.949 52.5708 138.832 53.0477 138.806 53.0477H135.858C135.641 53.0477 135.596 54.0386 135.558 54.8908C135.532 55.4703 135.509 55.9856 135.436 56.082C135.291 56.2756 134.638 56.2466 133.986 56.2176C133.336 56.1891 132.688 56.1601 132.543 56.3519C132.399 56.5438 132.401 57.5195 132.403 58.3395C132.404 58.9824 132.406 59.5299 132.336 59.5299H129.82C129.67 59.5299 129.317 59.8841 129.317 60.034V62.843H126.37L126.154 63.0594V66.0125H123.063L122.848 66.2284V68.8215L122.632 69.0374H119.541V66.3725L119.397 66.0125H116.378C116.32 66.0125 116.323 65.6453 116.325 65.1554C116.332 64.1739 116.341 62.6993 115.875 62.6993H113.215C113.109 62.6993 113.141 62.0975 113.175 61.439C113.211 60.7586 113.25 60.018 113.143 59.8181C112.948 59.4522 112.145 59.4928 111.41 59.5303C110.814 59.5606 110.261 59.5888 110.115 59.3951C109.987 59.226 109.975 58.2472 109.966 57.4454C109.959 56.8815 109.953 56.4054 109.908 56.3608C109.745 56.1962 107.562 56.2368 105.347 56.2778C103.12 56.3193 100.86 56.3613 100.588 56.1958C100.464 56.1208 100.488 55.4484 100.514 54.7431C100.542 53.9824 100.571 53.1829 100.417 53.0508C100.314 52.9638 99.4427 52.9549 98.6427 52.9464C97.9758 52.9397 97.3584 52.933 97.278 52.8826C97.0892 52.7639 97.1414 52.2803 97.2003 51.7338C97.2816 50.9811 97.3758 50.1089 96.8709 49.9054C96.4852 49.7497 95.2936 49.805 94.0945 49.8608C92.7512 49.9228 91.3981 49.9857 91.1593 49.7524C91.0588 49.6547 91.0445 49.1595 91.028 48.596C91.0048 47.796 90.978 46.8591 90.695 46.7306L62.5677 46.7065C62.466 46.7364 62.3222 47.0157 62.3222 47.0697V55.8567L62.5378 56.0726H65.2691L65.4847 56.289V59.1698C65.4847 59.6878 68.5914 59.5838 71.2883 59.4942C73.1249 59.433 74.7713 59.3782 75.1173 59.5299C75.1173 59.5299 75.1173 59.5664 75.1173 59.595C75.116 60.0987 75.1111 62.6993 75.2611 62.6993H78.2802C78.4227 62.6993 78.4088 63.962 78.3927 65.3727C78.3727 67.1586 78.3499 69.1815 78.6396 69.1815H84.6057C84.7673 69.1815 84.7075 72.2426 84.5128 72.3296C83.2481 72.6115 78.3941 72.5031 73.3026 72.3894C66.7932 72.2444 59.8954 72.09 59.6115 72.7316C59.5137 72.9511 59.5454 73.3713 59.5789 73.8193C59.6298 74.4992 59.6856 75.2434 59.303 75.4477C58.7914 75.7203 56.974 75.6307 55.0954 75.5374C53.0481 75.4361 50.9271 75.3308 50.3414 75.6878C50.0383 75.8734 50.0669 76.626 50.0932 77.3314C50.1164 77.9502 50.1383 78.5329 49.9343 78.6649C49.8383 78.7265 48.9959 78.7221 47.9561 78.7171C46.1053 78.7082 43.6294 78.6962 43.6294 79.046V81.7831L43.4138 81.9991H40.826C40.4581 81.9991 40.4456 82.9628 40.4343 83.8314C40.4266 84.427 40.4194 84.978 40.2988 85.144C40.148 85.3523 39.5104 85.3278 38.8796 85.3037C38.3456 85.2832 37.8164 85.2631 37.5912 85.384C37.2294 85.5781 37.2686 86.3379 37.3046 87.0352C37.3338 87.6023 37.361 88.1274 37.1689 88.2742C37.0343 88.3768 36.5277 88.3884 35.9667 88.4018C35.1798 88.4205 34.286 88.4415 34.1618 88.7186C34.2742 89.221 34.2196 91.9608 34.1549 95.2065C34.0455 100.699 33.9073 107.64 34.5003 107.64H36.9443L37.1599 107.424V104.543L37.3756 104.327H40.1071L40.3228 104.111V101.518C40.3228 101.25 41.6354 101.228 42.5703 101.212C43.0603 101.204 43.4465 101.197 43.4857 101.158C43.6474 100.997 43.6016 99.3848 43.5574 97.8264C43.514 96.2969 43.4722 94.8197 43.6294 94.8197H49.6677C49.7249 94.8197 49.7231 95.2342 49.7209 95.7638C49.7169 96.6976 49.7115 97.9888 50.0271 97.9888H52.9021L53.1182 97.7728V91.6503H65.482C65.5503 91.6503 65.5352 91.0604 65.5182 90.3894C65.4954 89.5056 65.4691 88.4812 65.6258 88.4812H68.7164L68.932 88.6972V91.4343L69.1481 91.6503H75.0423C75.282 91.6503 75.4405 94.4775 75.2611 94.6123C75.0977 94.7341 73.3503 94.7046 71.3874 94.6716C68.7075 94.6265 65.6258 94.5748 65.6258 94.8916V97.6287C65.2486 98.0642 62.9753 98.0017 61.3271 97.9562C60.3972 97.9308 59.6664 97.9107 59.5874 97.9888C59.5441 98.0311 59.5553 98.4492 59.5695 98.9605C59.591 99.7515 59.6186 100.765 59.4588 100.957C59.2392 101.22 58.7026 101.186 58.149 101.152C57.4776 101.11 56.782 101.066 56.5981 101.548C56.4347 101.976 56.4486 103.273 56.4619 104.545C56.4758 105.885 56.4892 107.197 56.2959 107.439C56.1597 107.61 54.3066 107.573 52.3111 107.534C50.1338 107.491 47.7869 107.445 47.3164 107.661C47.0088 107.802 46.9825 108.735 46.9584 109.572C46.9378 110.299 46.9195 110.953 46.7204 110.953H43.8451C43.584 110.953 43.5984 112.901 43.6113 114.662C43.622 116.112 43.6318 117.436 43.4857 117.436H40.6822L40.4665 117.652V120.389C40.4665 120.389 40.4665 120.719 40.4645 121.074H0.0268555C1.42259 53.9717 56.8405 0 125 0C193.159 0 248.577 53.9717 249.973 121.074H209.253Z" fill="url(#paint3_linear_5731_2)"/>
<path d="M53.0933 131.555C53.0786 130.994 53.0505 130.336 53.0205 129.642C52.9014 126.855 52.7576 123.485 53.3339 123.485H59.1563C59.4871 123.485 59.4473 126.798 59.408 130.112C59.4022 130.596 59.3964 131.081 59.3915 131.555H53.0933Z" fill="#2B142D"/>
<path d="M53.0933 131.555C53.0786 130.994 53.0505 130.336 53.0205 129.642C52.9014 126.855 52.7576 123.485 53.3339 123.485H59.1563C59.4871 123.485 59.4473 126.798 59.408 130.112C59.4022 130.596 59.3964 131.081 59.3915 131.555H53.0933Z" fill="url(#paint4_linear_5731_2)"/>
<path d="M34.3026 135.254H0.54126C0.834059 138.372 1.24384 141.456 1.76623 144.503H40.4666V143.149L40.3228 142.789H37.5194C37.2657 142.789 37.2379 140.801 37.2142 139.101C37.1975 137.91 37.1829 136.861 37.0941 136.732C37.0119 136.613 36.5746 136.657 36.0683 136.707C35.339 136.78 34.4665 136.866 34.3056 136.501C34.3229 136.343 34.3188 135.893 34.3026 135.254Z" fill="#2B142D"/>
<path d="M34.3026 135.254H0.54126C0.834059 138.372 1.24384 141.456 1.76623 144.503H40.4666V143.149L40.3228 142.789H37.5194C37.2657 142.789 37.2379 140.801 37.2142 139.101C37.1975 137.91 37.1829 136.861 37.0941 136.732C37.0119 136.613 36.5746 136.657 36.0683 136.707C35.339 136.78 34.4665 136.866 34.3056 136.501C34.3229 136.343 34.3188 135.893 34.3026 135.254Z" fill="url(#paint5_linear_5731_2)"/>
<path d="M43.4858 144.503V139.764C43.4858 139.618 44.512 139.641 45.4211 139.662C46.1438 139.678 46.7925 139.693 46.7925 139.62V135.254H59.4121C59.4483 136.164 59.5215 136.739 59.6595 136.739H62.3193V144.503H43.4858Z" fill="#2B142D"/>
<path d="M43.4858 144.503V139.764C43.4858 139.618 44.512 139.641 45.4211 139.662C46.1438 139.678 46.7925 139.693 46.7925 139.62V135.254H59.4121C59.4483 136.164 59.5215 136.739 59.6595 136.739H62.3193V144.503H43.4858Z" fill="url(#paint6_linear_5731_2)"/>
<path d="M68.7075 144.503H81.2964C81.3133 144.01 81.3308 143.517 81.3482 143.024C81.4392 140.433 81.5308 137.841 81.5647 135.254H75.258V139.548L75.0424 139.764H72.095C72.0205 139.764 72.0218 140.52 72.0232 141.276C72.025 142.032 72.0263 142.789 71.9513 142.789H69.2919C68.7169 142.789 68.675 143.67 68.7075 144.503Z" fill="#2B142D"/>
<path d="M68.7075 144.503H81.2964C81.3133 144.01 81.3308 143.517 81.3482 143.024C81.4392 140.433 81.5308 137.841 81.5647 135.254H75.258V139.548L75.0424 139.764H72.095C72.0205 139.764 72.0218 140.52 72.0232 141.276C72.025 142.032 72.0263 142.789 71.9513 142.789H69.2919C68.7169 142.789 68.675 143.67 68.7075 144.503Z" fill="url(#paint7_linear_5731_2)"/>
<path d="M75.2581 131.555V130.328L75.4737 130.112H78.0616L78.2773 129.896V127.303C78.2773 127.012 81.3589 126.496 81.4339 127.453C81.5081 128.817 81.55 130.185 81.5679 131.555H75.2581Z" fill="#2B142D"/>
<path d="M75.2581 131.555V130.328L75.4737 130.112H78.0616L78.2773 129.896V127.303C78.2773 127.012 81.3589 126.496 81.4339 127.453C81.5081 128.817 81.55 130.185 81.5679 131.555H75.2581Z" fill="url(#paint8_linear_5731_2)"/>
<path d="M138.371 135.254V144.503H154.766C154.77 144.24 154.775 143.975 154.78 143.71C154.831 140.817 154.883 137.863 154.545 137.863H151.741C151.678 137.863 151.666 137.134 151.65 136.256C151.645 135.933 151.638 135.589 151.629 135.254H138.371Z" fill="#2B142D"/>
<path d="M138.371 135.254V144.503H154.766C154.77 144.24 154.775 143.975 154.78 143.71C154.831 140.817 154.883 137.863 154.545 137.863H151.741C151.678 137.863 151.666 137.134 151.65 136.256C151.645 135.933 151.638 135.589 151.629 135.254H138.371Z" fill="url(#paint9_linear_5731_2)"/>
<path d="M177.045 135.254V142.432L176.829 142.648H174.097C173.942 142.648 173.86 143.387 173.821 144.503H202.922V142.936H199.759C199.5 142.936 199.578 140.226 199.651 137.677C199.676 136.814 199.7 135.969 199.711 135.254H177.045Z" fill="#2B142D"/>
<path d="M177.045 135.254V142.432L176.829 142.648H174.097C173.942 142.648 173.86 143.387 173.821 144.503H202.922V142.936H199.759C199.5 142.936 199.578 140.226 199.651 137.677C199.676 136.814 199.7 135.969 199.711 135.254H177.045Z" fill="url(#paint10_linear_5731_2)"/>
<path d="M190.127 131.555V123.633H183.801V131.555H190.127Z" fill="#2B142D"/>
<path d="M190.127 131.555V123.633H183.801V131.555H190.127Z" fill="url(#paint11_linear_5731_2)"/>
<path d="M215.574 135.254V139.118C215.574 139.178 215.014 139.479 214.927 139.479H212.555C212.393 139.479 212.438 141.099 212.483 142.72C212.5 143.345 212.517 143.97 212.523 144.503H248.234C248.756 141.456 249.166 138.372 249.458 135.254H215.574Z" fill="#2B142D"/>
<path d="M215.574 135.254V139.118C215.574 139.178 215.014 139.479 214.927 139.479H212.555C212.393 139.479 212.438 141.099 212.483 142.72C212.5 143.345 212.517 143.97 212.523 144.503H248.234C248.756 141.456 249.166 138.372 249.458 135.254H215.574Z" fill="url(#paint12_linear_5731_2)"/>
<path d="M158.067 149.435H132.807C132.713 152.664 132.614 157.168 132.808 158.681H164.303L164.249 155.036H161.446C161.191 155.036 161.195 154.405 161.2 153.706C161.207 152.839 161.215 151.867 160.727 151.867H158.283L158.067 151.651V149.435Z" fill="#2B142D"/>
<path d="M158.067 149.435H132.807C132.713 152.664 132.614 157.168 132.808 158.681H164.303L164.249 155.036H161.446C161.191 155.036 161.195 154.405 161.2 153.706C161.207 152.839 161.215 151.867 160.727 151.867H158.283L158.067 151.651V149.435Z" fill="url(#paint13_linear_5731_2)"/>
<path d="M167.843 158.681V157.989L168.059 157.773H170.575V155.036L170.934 154.892H173.738C173.854 154.531 173.833 152.414 173.81 150.04C173.808 149.84 173.806 149.638 173.804 149.435H247.283C246.613 152.562 245.824 155.646 244.92 158.681H167.843Z" fill="#2B142D"/>
<path d="M167.843 158.681V157.989L168.059 157.773H170.575V155.036L170.934 154.892H173.738C173.854 154.531 173.833 152.414 173.81 150.04C173.808 149.84 173.806 149.638 173.804 149.435H247.283C246.613 152.562 245.824 155.646 244.92 158.681H167.843Z" fill="url(#paint14_linear_5731_2)"/>
<path d="M116.613 158.681C116.59 156.95 116.588 154.892 116.588 154.892H119.391C119.639 154.892 119.673 150.624 119.495 149.435H103.577V158.681H116.613Z" fill="#2B142D"/>
<path d="M116.613 158.681C116.59 156.95 116.588 154.892 116.588 154.892H119.391C119.639 154.892 119.673 150.624 119.495 149.435H103.577V158.681H116.613Z" fill="url(#paint15_linear_5731_2)"/>
<path d="M94.0883 164.846H116.013V170.521L116.228 170.737H118.888C119.027 170.737 118.993 171.878 118.954 173.183C118.945 173.482 118.936 173.788 118.928 174.093H10.8285C9.46371 171.072 8.21773 167.988 7.09644 164.846H87.5798C87.5455 166.286 87.5843 167.424 87.8347 167.424H90.7816L90.9254 167.785V170.881H93.7289C93.753 170.881 94.0883 170.545 94.0883 170.521V164.846Z" fill="#2B142D"/>
<path d="M94.0883 164.846H116.013V170.521L116.228 170.737H118.888C119.027 170.737 118.993 171.878 118.954 173.183C118.945 173.482 118.936 173.788 118.928 174.093H10.8285C9.46371 171.072 8.21773 167.988 7.09644 164.846H87.5798C87.5455 166.286 87.5843 167.424 87.8347 167.424H90.7816L90.9254 167.785V170.881H93.7289C93.753 170.881 94.0883 170.545 94.0883 170.521V164.846Z" fill="url(#paint16_linear_5731_2)"/>
<path d="M81.2686 158.681C81.0972 155.614 81.0918 152.529 81.1543 149.435H2.7168C3.38675 152.562 4.17618 155.646 5.08015 158.681H81.2686Z" fill="#2B142D"/>
<path d="M81.2686 158.681C81.0972 155.614 81.0918 152.529 81.1543 149.435H2.7168C3.38675 152.562 4.17618 155.646 5.08015 158.681H81.2686Z" fill="url(#paint17_linear_5731_2)"/>
<path d="M138.464 174.093C138.441 173.972 138.411 173.907 138.371 173.907H135.712L135.352 173.763V170.954L135.568 170.738H138.371V164.846H242.904C241.782 167.988 240.536 171.072 239.171 174.093H138.464Z" fill="#2B142D"/>
<path d="M138.464 174.093C138.441 173.972 138.411 173.907 138.371 173.907H135.712L135.352 173.763V170.954L135.568 170.738H138.371V164.846H242.904C241.782 167.988 240.536 171.072 239.171 174.093H138.464Z" fill="url(#paint18_linear_5731_2)"/>
<path d="M122.195 181.491H14.4763C16.1723 184.657 18.0032 187.742 19.9615 190.738H116.013V186.8C116.013 186.525 117.295 186.504 118.189 186.489C118.642 186.481 118.995 186.476 119.032 186.439C119.078 186.393 119.083 185.789 119.087 185.146C119.092 184.38 119.097 183.558 119.175 183.558H122.195V181.491Z" fill="#2B142D"/>
<path d="M122.195 181.491H14.4763C16.1723 184.657 18.0032 187.742 19.9615 190.738H116.013V186.8C116.013 186.525 117.295 186.504 118.189 186.489C118.642 186.481 118.995 186.476 119.032 186.439C119.078 186.393 119.083 185.789 119.087 185.146C119.092 184.38 119.097 183.558 119.175 183.558H122.195V181.491Z" fill="url(#paint19_linear_5731_2)"/>
<path d="M138.659 190.738V187.89H141.966C141.946 187.732 141.977 187.176 142.013 186.507C142.085 185.183 142.18 183.414 141.966 183.414H138.515C138.379 183.414 138.348 182.62 138.363 181.491H235.524C233.828 184.657 231.997 187.742 230.038 190.738H138.659Z" fill="#2B142D"/>
<path d="M138.659 190.738V187.89H141.966C141.946 187.732 141.977 187.176 142.013 186.507C142.085 185.183 142.18 183.414 141.966 183.414H138.515C138.379 183.414 138.348 182.62 138.363 181.491H235.524C233.828 184.657 231.997 187.742 230.038 190.738H138.659Z" fill="url(#paint20_linear_5731_2)"/>
<path d="M116.211 199.368H26.147C28.6637 202.58 31.3368 205.667 34.1551 208.615H115.893C115.833 207.815 115.909 206.038 115.986 204.259C116.081 202.044 116.176 199.828 116.007 199.497C116.02 199.464 116.11 199.414 116.211 199.368Z" fill="#2B142D"/>
<path d="M116.211 199.368H26.147C28.6637 202.58 31.3368 205.667 34.1551 208.615H115.893C115.833 207.815 115.909 206.038 115.986 204.259C116.081 202.044 116.176 199.828 116.007 199.497C116.02 199.464 116.11 199.414 116.211 199.368Z" fill="url(#paint21_linear_5731_2)"/>
<path d="M144.985 208.615V205.598H142.109L141.966 205.238V199.368H223.853C221.337 202.58 218.663 205.667 215.845 208.615H144.985Z" fill="#2B142D"/>
<path d="M144.985 208.615V205.598H142.109L141.966 205.238V199.368H223.853C221.337 202.58 218.663 205.667 215.845 208.615H144.985Z" fill="url(#paint22_linear_5731_2)"/>
<path d="M119.032 218.479H44.738C48.7599 221.815 52.997 224.906 57.4264 227.727H119.176V224.469H121.692L122.051 224.325V221.3C122.051 221.243 121.647 221.242 121.134 221.24C120.245 221.236 119.032 221.23 119.032 220.94V218.479Z" fill="#2B142D"/>
<path d="M119.032 218.479H44.738C48.7599 221.815 52.997 224.906 57.4264 227.727H119.176V224.469H121.692L122.051 224.325V221.3C122.051 221.243 121.647 221.242 121.134 221.24C120.245 221.236 119.032 221.23 119.032 220.94V218.479Z" fill="url(#paint23_linear_5731_2)"/>
<path d="M148.147 227.727V221.588C148.147 221.441 145.272 221.294 145.272 221.66V224.253C145.272 224.475 141.822 224.835 141.822 224.397V221.3H144.769L144.985 221.084V218.479H205.262C201.24 221.815 197.003 224.906 192.574 227.727H148.147Z" fill="#2B142D"/>
<path d="M148.147 227.727V221.588C148.147 221.441 145.272 221.294 145.272 221.66V224.253C145.272 224.475 141.822 224.835 141.822 224.397V221.3H144.769L144.985 221.084V218.479H205.262C201.24 221.815 197.003 224.906 192.574 227.727H148.147Z" fill="url(#paint24_linear_5731_2)"/>
<path d="M103.577 144.503H112.941C112.99 142.084 113.026 139.623 112.706 139.623H110.046C109.915 139.623 109.932 138.684 109.946 137.853C109.958 137.191 109.969 136.598 109.903 136.598H106.74V139.623C106.74 139.702 105.949 139.698 105.158 139.694C104.368 139.691 103.577 139.687 103.577 139.767V144.503Z" fill="#2B142D"/>
<path d="M103.577 144.503H112.941C112.99 142.084 113.026 139.623 112.706 139.623H110.046C109.915 139.623 109.932 138.684 109.946 137.853C109.958 137.191 109.969 136.598 109.903 136.598H106.74V139.623C106.74 139.702 105.949 139.698 105.158 139.694C104.368 139.691 103.577 139.687 103.577 139.767V144.503Z" fill="url(#paint25_linear_5731_2)"/>
<path d="M174.097 91.6504H180.495V94.6758H173.882V91.8668L174.097 91.6504Z" fill="#2B142D"/>
<path d="M174.097 91.6504H180.495V94.6758H173.882V91.8668L174.097 91.6504Z" fill="url(#paint26_linear_5731_2)"/>
<path d="M187.18 91.6504H190.127V97.773L189.912 97.9889H187.18L186.964 97.773V91.8668L187.18 91.6504Z" fill="#2B142D"/>
<path d="M187.18 91.6504H190.127V97.773L189.912 97.9889H187.18L186.964 97.773V91.8668L187.18 91.6504Z" fill="url(#paint27_linear_5731_2)"/>
</g>
<defs>
<linearGradient id="paint0_linear_5731_2" x1="125" y1="-0.000131967" x2="125" y2="227.727" gradientUnits="userSpaceOnUse">
<stop stop-color="#FFE53A"/>
<stop offset="0.36" stop-color="#FC894B"/>
<stop offset="0.63" stop-color="#FB4E5F"/>
<stop offset="0.805" stop-color="#E02EA1"/>
<stop offset="1" stop-color="#763CC1"/>
</linearGradient>
<linearGradient id="paint1_linear_5731_2" x1="125" y1="-0.000131967" x2="125" y2="227.727" gradientUnits="userSpaceOnUse">
<stop stop-color="#FFE53A"/>
<stop offset="0.36" stop-color="#FC894B"/>
<stop offset="0.63" stop-color="#FB4E5F"/>
<stop offset="0.805" stop-color="#E02EA1"/>
<stop offset="1" stop-color="#763CC1"/>
</linearGradient>
<linearGradient id="paint2_linear_5731_2" x1="125" y1="-0.000131967" x2="125" y2="227.727" gradientUnits="userSpaceOnUse">
<stop stop-color="#FFE53A"/>
<stop offset="0.36" stop-color="#FC894B"/>
<stop offset="0.63" stop-color="#FB4E5F"/>
<stop offset="0.805" stop-color="#E02EA1"/>
<stop offset="1" stop-color="#763CC1"/>
</linearGradient>
<linearGradient id="paint3_linear_5731_2" x1="125" y1="0" x2="125" y2="227.727" gradientUnits="userSpaceOnUse">
<stop stop-color="#FFE53A"/>
<stop offset="0.36" stop-color="#FC894B"/>
<stop offset="0.63" stop-color="#FB4E5F"/>
<stop offset="0.805" stop-color="#E02EA1"/>
<stop offset="1" stop-color="#763CC1"/>
</linearGradient>
<linearGradient id="paint4_linear_5731_2" x1="125" y1="-0.000257074" x2="125" y2="227.727" gradientUnits="userSpaceOnUse">
<stop stop-color="#FFE53A"/>
<stop offset="0.36" stop-color="#FC894B"/>
<stop offset="0.63" stop-color="#FB4E5F"/>
<stop offset="0.805" stop-color="#E02EA1"/>
<stop offset="1" stop-color="#763CC1"/>
</linearGradient>
<linearGradient id="paint5_linear_5731_2" x1="125" y1="0.000144337" x2="125" y2="227.727" gradientUnits="userSpaceOnUse">
<stop stop-color="#FFE53A"/>
<stop offset="0.36" stop-color="#FC894B"/>
<stop offset="0.63" stop-color="#FB4E5F"/>
<stop offset="0.805" stop-color="#E02EA1"/>
<stop offset="1" stop-color="#763CC1"/>
</linearGradient>
<linearGradient id="paint6_linear_5731_2" x1="125" y1="0.000144337" x2="125" y2="227.727" gradientUnits="userSpaceOnUse">
<stop stop-color="#FFE53A"/>
<stop offset="0.36" stop-color="#FC894B"/>
<stop offset="0.63" stop-color="#FB4E5F"/>
<stop offset="0.805" stop-color="#E02EA1"/>
<stop offset="1" stop-color="#763CC1"/>
</linearGradient>
<linearGradient id="paint7_linear_5731_2" x1="125" y1="0.000144337" x2="125" y2="227.727" gradientUnits="userSpaceOnUse">
<stop stop-color="#FFE53A"/>
<stop offset="0.36" stop-color="#FC894B"/>
<stop offset="0.63" stop-color="#FB4E5F"/>
<stop offset="0.805" stop-color="#E02EA1"/>
<stop offset="1" stop-color="#763CC1"/>
</linearGradient>
<linearGradient id="paint8_linear_5731_2" x1="125" y1="2.65683e-07" x2="125" y2="227.727" gradientUnits="userSpaceOnUse">
<stop stop-color="#FFE53A"/>
<stop offset="0.36" stop-color="#FC894B"/>
<stop offset="0.63" stop-color="#FB4E5F"/>
<stop offset="0.805" stop-color="#E02EA1"/>
<stop offset="1" stop-color="#763CC1"/>
</linearGradient>
<linearGradient id="paint9_linear_5731_2" x1="125" y1="0.000144337" x2="125" y2="227.727" gradientUnits="userSpaceOnUse">
<stop stop-color="#FFE53A"/>
<stop offset="0.36" stop-color="#FC894B"/>
<stop offset="0.63" stop-color="#FB4E5F"/>
<stop offset="0.805" stop-color="#E02EA1"/>
<stop offset="1" stop-color="#763CC1"/>
</linearGradient>
<linearGradient id="paint10_linear_5731_2" x1="125" y1="0.000144337" x2="125" y2="227.727" gradientUnits="userSpaceOnUse">
<stop stop-color="#FFE53A"/>
<stop offset="0.36" stop-color="#FC894B"/>
<stop offset="0.63" stop-color="#FB4E5F"/>
<stop offset="0.805" stop-color="#E02EA1"/>
<stop offset="1" stop-color="#763CC1"/>
</linearGradient>
<linearGradient id="paint11_linear_5731_2" x1="125" y1="4.16678e-05" x2="125" y2="227.727" gradientUnits="userSpaceOnUse">
<stop stop-color="#FFE53A"/>
<stop offset="0.36" stop-color="#FC894B"/>
<stop offset="0.63" stop-color="#FB4E5F"/>
<stop offset="0.805" stop-color="#E02EA1"/>
<stop offset="1" stop-color="#763CC1"/>
</linearGradient>
<linearGradient id="paint12_linear_5731_2" x1="125" y1="0.000144337" x2="125" y2="227.727" gradientUnits="userSpaceOnUse">
<stop stop-color="#FFE53A"/>
<stop offset="0.36" stop-color="#FC894B"/>
<stop offset="0.63" stop-color="#FB4E5F"/>
<stop offset="0.805" stop-color="#E02EA1"/>
<stop offset="1" stop-color="#763CC1"/>
</linearGradient>
<linearGradient id="paint13_linear_5731_2" x1="125" y1="0.000354584" x2="125" y2="227.727" gradientUnits="userSpaceOnUse">
<stop stop-color="#FFE53A"/>
<stop offset="0.36" stop-color="#FC894B"/>
<stop offset="0.63" stop-color="#FB4E5F"/>
<stop offset="0.805" stop-color="#E02EA1"/>
<stop offset="1" stop-color="#763CC1"/>
</linearGradient>
<linearGradient id="paint14_linear_5731_2" x1="125" y1="0.000354584" x2="125" y2="227.727" gradientUnits="userSpaceOnUse">
<stop stop-color="#FFE53A"/>
<stop offset="0.36" stop-color="#FC894B"/>
<stop offset="0.63" stop-color="#FB4E5F"/>
<stop offset="0.805" stop-color="#E02EA1"/>
<stop offset="1" stop-color="#763CC1"/>
</linearGradient>
<linearGradient id="paint15_linear_5731_2" x1="125" y1="0.000354584" x2="125" y2="227.727" gradientUnits="userSpaceOnUse">
<stop stop-color="#FFE53A"/>
<stop offset="0.36" stop-color="#FC894B"/>
<stop offset="0.63" stop-color="#FB4E5F"/>
<stop offset="0.805" stop-color="#E02EA1"/>
<stop offset="1" stop-color="#763CC1"/>
</linearGradient>
<linearGradient id="paint16_linear_5731_2" x1="125" y1="-0.000228179" x2="125" y2="227.727" gradientUnits="userSpaceOnUse">
<stop stop-color="#FFE53A"/>
<stop offset="0.36" stop-color="#FC894B"/>
<stop offset="0.63" stop-color="#FB4E5F"/>
<stop offset="0.805" stop-color="#E02EA1"/>
<stop offset="1" stop-color="#763CC1"/>
</linearGradient>
<linearGradient id="paint17_linear_5731_2" x1="125" y1="0.000354584" x2="125" y2="227.727" gradientUnits="userSpaceOnUse">
<stop stop-color="#FFE53A"/>
<stop offset="0.36" stop-color="#FC894B"/>
<stop offset="0.63" stop-color="#FB4E5F"/>
<stop offset="0.805" stop-color="#E02EA1"/>
<stop offset="1" stop-color="#763CC1"/>
</linearGradient>
<linearGradient id="paint18_linear_5731_2" x1="125" y1="-0.000228179" x2="125" y2="227.727" gradientUnits="userSpaceOnUse">
<stop stop-color="#FFE53A"/>
<stop offset="0.36" stop-color="#FC894B"/>
<stop offset="0.63" stop-color="#FB4E5F"/>
<stop offset="0.805" stop-color="#E02EA1"/>
<stop offset="1" stop-color="#763CC1"/>
</linearGradient>
<linearGradient id="paint19_linear_5731_2" x1="125" y1="0.000456469" x2="125" y2="227.727" gradientUnits="userSpaceOnUse">
<stop stop-color="#FFE53A"/>
<stop offset="0.36" stop-color="#FC894B"/>
<stop offset="0.63" stop-color="#FB4E5F"/>
<stop offset="0.805" stop-color="#E02EA1"/>
<stop offset="1" stop-color="#763CC1"/>
</linearGradient>
<linearGradient id="paint20_linear_5731_2" x1="125" y1="0.000456469" x2="125" y2="227.727" gradientUnits="userSpaceOnUse">
<stop stop-color="#FFE53A"/>
<stop offset="0.36" stop-color="#FC894B"/>
<stop offset="0.63" stop-color="#FB4E5F"/>
<stop offset="0.805" stop-color="#E02EA1"/>
<stop offset="1" stop-color="#763CC1"/>
</linearGradient>
<linearGradient id="paint21_linear_5731_2" x1="125" y1="8.58361e-05" x2="125" y2="227.727" gradientUnits="userSpaceOnUse">
<stop stop-color="#FFE53A"/>
<stop offset="0.36" stop-color="#FC894B"/>
<stop offset="0.63" stop-color="#FB4E5F"/>
<stop offset="0.805" stop-color="#E02EA1"/>
<stop offset="1" stop-color="#763CC1"/>
</linearGradient>
<linearGradient id="paint22_linear_5731_2" x1="125" y1="8.58361e-05" x2="125" y2="227.727" gradientUnits="userSpaceOnUse">
<stop stop-color="#FFE53A"/>
<stop offset="0.36" stop-color="#FC894B"/>
<stop offset="0.63" stop-color="#FB4E5F"/>
<stop offset="0.805" stop-color="#E02EA1"/>
<stop offset="1" stop-color="#763CC1"/>
</linearGradient>
<linearGradient id="paint23_linear_5731_2" x1="125" y1="0.000518811" x2="125" y2="227.727" gradientUnits="userSpaceOnUse">
<stop stop-color="#FFE53A"/>
<stop offset="0.36" stop-color="#FC894B"/>
<stop offset="0.63" stop-color="#FB4E5F"/>
<stop offset="0.805" stop-color="#E02EA1"/>
<stop offset="1" stop-color="#763CC1"/>
</linearGradient>
<linearGradient id="paint24_linear_5731_2" x1="125" y1="0.000518811" x2="125" y2="227.727" gradientUnits="userSpaceOnUse">
<stop stop-color="#FFE53A"/>
<stop offset="0.36" stop-color="#FC894B"/>
<stop offset="0.63" stop-color="#FB4E5F"/>
<stop offset="0.805" stop-color="#E02EA1"/>
<stop offset="1" stop-color="#763CC1"/>
</linearGradient>
<linearGradient id="paint25_linear_5731_2" x1="125" y1="-5.44659e-06" x2="125" y2="227.727" gradientUnits="userSpaceOnUse">
<stop stop-color="#FFE53A"/>
<stop offset="0.36" stop-color="#FC894B"/>
<stop offset="0.63" stop-color="#FB4E5F"/>
<stop offset="0.805" stop-color="#E02EA1"/>
<stop offset="1" stop-color="#763CC1"/>
</linearGradient>
<linearGradient id="paint26_linear_5731_2" x1="125" y1="5.18682e-05" x2="125" y2="227.727" gradientUnits="userSpaceOnUse">
<stop stop-color="#FFE53A"/>
<stop offset="0.36" stop-color="#FC894B"/>
<stop offset="0.63" stop-color="#FB4E5F"/>
<stop offset="0.805" stop-color="#E02EA1"/>
<stop offset="1" stop-color="#763CC1"/>
</linearGradient>
<linearGradient id="paint27_linear_5731_2" x1="125" y1="0.000126555" x2="125" y2="227.727" gradientUnits="userSpaceOnUse">
<stop stop-color="#FFE53A"/>
<stop offset="0.36" stop-color="#FC894B"/>
<stop offset="0.63" stop-color="#FB4E5F"/>
<stop offset="0.805" stop-color="#E02EA1"/>
<stop offset="1" stop-color="#763CC1"/>
</linearGradient>
<clipPath id="clip0_5731_2">
<rect width="250" height="232" fill="white"/>
</clipPath>
</defs>
</svg>
