<svg height="512" viewBox="0 0 512 512" width="512" xmlns="http://www.w3.org/2000/svg" xmlns:xlink="http://www.w3.org/1999/xlink"><linearGradient id="a"><stop offset="0" stop-color="#6c6"/><stop offset="1" stop-color="#98ff98"/></linearGradient><linearGradient id="b" gradientUnits="userSpaceOnUse" x1="-12.5759" x2="147.708" xlink:href="#a" y1="84.2226" y2="160.418"/><linearGradient id="c" gradientUnits="userSpaceOnUse" x1="92.9832" x2="607.722" xlink:href="#a" y1="-53.669" y2="431.405"/><linearGradient id="d" gradientUnits="userSpaceOnUse" x1="608.182" x2="768.465" xlink:href="#a" y1="84.2226" y2="160.418"/><path d="m0 0h512v512h-512z"/><svg height="180.74" viewBox="0 0 700 353" width="358.4" x="76.8" y="165.63"><path d="m78.6677 145.092c0-21.737-17.6104-39.358-39.3338-39.358-21.7235 0-39.3339 17.621-39.3339 39.358v62.775c0 21.737 17.6104 39.358 39.3339 39.358 21.7234 0 39.3338-17.621 39.3338-39.358z" fill="url(#b)"/><path d="m347.024 0c-9.719 0-19.039 3.86237-25.912 10.7374-6.872 6.8751-10.732 16.1997-10.732 25.9225v51.6688c-.004 9.717-3.862 19.0353-10.727 25.9083-6.866 6.874-16.177 10.741-25.89 10.752h-3.23c-4.814.001-9.582-.945-14.03-2.787-4.448-1.841-8.49-4.541-11.895-7.945-3.406-3.404-6.107-7.446-7.951-11.895-1.844-4.4487-2.794-9.2172-2.796-14.0333v-8.2166c-.004-9.7217-3.865-19.0441-10.737-25.9184-6.871-6.8743-16.189-10.7378-25.907-10.7414h-5.38c-9.719 0-19.041 3.8619-25.916 10.7366-6.874 6.8746-10.738 16.1992-10.741 25.9232v192.7489c.007 9.72 3.873 19.04 10.747 25.909 6.874 6.87 16.194 10.727 25.91 10.723h5.38c4.812 0 9.577-.948 14.023-2.791 4.446-1.842 8.486-4.542 11.888-7.946 3.403-3.405 6.102-7.446 7.944-11.894 1.841-4.448 2.789-9.215 2.789-14.029v-58.365c.004-9.722 3.866-19.044 10.737-25.919 6.871-6.874 16.19-10.738 25.907-10.741h3.258c9.717.003 19.036 3.867 25.907 10.741 6.872 6.875 10.733 16.197 10.737 25.919v101.872c0 4.814.948 9.582 2.789 14.029 1.842 4.448 4.541 8.489 7.944 11.894 3.403 3.404 7.442 6.104 11.888 7.946 4.446 1.843 9.211 2.791 14.023 2.791h5.38c9.714-.007 19.027-3.873 25.893-10.747s10.723-16.195 10.723-25.913v-47.492c0-4.815.949-9.584 2.791-14.032 1.842-4.449 4.543-8.491 7.947-11.895 3.404-3.405 7.445-6.105 11.893-7.946 4.447-1.842 9.214-2.789 14.027-2.787h3.217c4.813-.002 9.578.945 14.025 2.787s8.487 4.542 11.89 7.947c3.403 3.404 6.102 7.446 7.943 11.895 1.841 4.448 2.788 9.216 2.786 14.031.004 9.722 3.865 19.044 10.737 25.918 6.871 6.875 16.19 10.738 25.907 10.742h5.393c9.718-.004 19.036-3.867 25.908-10.742 6.871-6.874 10.733-16.196 10.736-25.918v-178.9581c0-9.7228-3.86-19.0474-10.732-25.9224-6.873-6.8751-16.193-10.7375-25.912-10.7375h-5.393c-9.719 0-19.039 3.8624-25.911 10.7375-6.872 6.875-10.733 16.1996-10.733 25.9224v52.8191c.004 4.817-.942 9.587-2.781 14.038-1.84 4.451-4.539 8.495-7.942 11.902s-7.444 6.11-11.892 7.954c-4.447 1.844-9.215 2.793-14.029 2.793h-3.217c-9.72 0-19.042-3.862-25.916-10.736-6.874-6.875-10.738-16.199-10.742-25.923v-106.0771c0-4.8143-.947-9.5814-2.789-14.0292-1.842-4.4477-4.541-8.4891-7.943-11.8933-3.403-3.40416-7.443-6.1045-11.889-7.94683-4.445-1.842335-9.21-2.79057-14.023-2.79057" fill="url(#c)"/><path d="m699.426 145.092c0-21.737-17.611-39.358-39.334-39.358-21.724 0-39.334 17.621-39.334 39.358v62.775c0 21.737 17.61 39.358 39.334 39.358 21.723 0 39.334-17.621 39.334-39.358z" fill="url(#d)"/></svg></svg>