<svg width="168" height="32" viewBox="0 0 168 32" fill="none" xmlns="http://www.w3.org/2000/svg">
<path d="M96.4521 8.24902C102.538 8.24902 106.027 11.1952 106.027 16.6797V25.9717C106.027 27.1501 106.521 27.4678 107.505 27.4678H108.489V31.7275H105.938C102.806 31.7275 101.732 30.3224 101.732 28.0107C100.211 30.3677 97.8838 32 94.1699 32C89.1586 31.9999 85.6681 29.507 85.668 25.2012C85.668 20.4419 89.0691 17.7676 95.4678 17.7676H101.24V16.3623C101.24 13.7788 99.4054 12.1924 96.2285 12.1924C93.3648 12.1924 91.441 13.5522 91.083 15.5918H86.3398C86.8321 11.0592 90.68 8.24903 96.4521 8.24902ZM140.687 8.24902C147.309 8.2491 151.739 12.5097 151.873 19.3086C151.873 19.8978 151.828 20.5324 151.738 21.167H134.467V21.4844C134.601 25.4277 137.062 28.0107 140.865 28.0107C143.818 28.0107 145.967 26.5152 146.638 23.9316H151.47C150.664 28.5096 146.817 32 141.134 32C133.93 32 129.41 27.2861 129.41 20.1699C129.41 13.0084 133.93 8.24902 140.687 8.24902ZM9.71875 21.1982C10.0102 21.1982 10.2584 21.3808 10.3613 21.6387C10.413 21.7372 10.4453 21.8484 10.4453 21.9678V31.1377C10.4451 31.5271 10.1334 31.8428 9.74902 31.8428H0.696289C0.31192 31.8427 0.000233378 31.527 0 31.1377V21.9014C5.96441e-05 21.5131 0.310975 21.1982 0.694336 21.1982H9.71875ZM30.541 21.1982C30.6983 21.1982 30.8416 21.2535 30.958 21.3428C31.1823 21.4599 31.3369 21.6945 31.3369 21.9678V31.1377C31.3367 31.5271 31.0251 31.8428 30.6406 31.8428H21.5879C21.3366 31.8426 21.1184 31.7062 20.9961 31.5039C20.8892 31.3802 20.8223 31.2202 20.8223 31.043V21.9014C20.8223 21.513 21.1332 21.1982 21.5166 21.1982H30.541ZM55.4697 25.1104L62.4502 0H67.3271L74.1289 25.1104L80.8408 0H86.1201L77.127 31.7285H71.1309L64.7314 8.38477L58.4229 31.7285H52.3818L43.4775 0H48.8027L55.4697 25.1104ZM115.954 31.7285H111.121V0H115.954V31.7285ZM125.523 31.7285H120.69V0H125.523V31.7285ZM162.138 8.52148H167.731V12.8271H162.138V24.9287C162.138 26.7417 162.764 27.4218 164.599 27.4219H168V31.7285H163.525C159.14 31.7285 157.261 29.6431 157.261 25.4277V12.8271H153.278V8.52148H157.261V2.03906H162.138V8.52148ZM95.2441 21.3936C92.2462 21.3936 90.5908 22.5268 90.5908 24.8838C90.5909 26.8328 92.2018 28.1924 94.8418 28.1924C98.8685 28.1922 101.195 25.7903 101.24 22.21V21.3936H95.2441ZM20.1162 10.6758C20.1655 10.6758 20.2134 10.6815 20.2598 10.6914C20.6155 10.7228 20.8953 11.0222 20.8955 11.3906V20.5605C20.8955 20.9501 20.5828 21.2666 20.1982 21.2666H11.1465C10.7619 21.2666 10.4502 20.9501 10.4502 20.5605V20.4727C10.448 20.4501 10.4434 20.4275 10.4434 20.4043V11.3711C10.4434 10.9875 10.7524 10.676 11.1338 10.6758H20.1162ZM140.731 12.1924C137.644 12.1924 135.004 14.2773 134.646 17.5859H146.861C146.459 14.1414 144.087 12.1925 140.731 12.1924ZM9.74902 0.102539C10.1334 0.102608 10.4451 0.418267 10.4453 0.807617V9.97754C10.4453 10.3671 10.1335 10.6835 9.74902 10.6836H0.696289C0.311734 10.6836 0 10.3671 0 9.97754V0.807617C0.000140465 0.541258 0.147078 0.311315 0.362305 0.191406C0.426472 0.155785 0.495853 0.128856 0.570312 0.115234C0.611232 0.107644 0.653206 0.102543 0.696289 0.102539H9.74902ZM30.6406 0.102539C31.0251 0.102539 31.3367 0.418225 31.3369 0.807617V9.97754C31.3369 10.3671 31.0252 10.6836 30.6406 10.6836H21.5879C21.4749 10.6835 21.3697 10.6529 21.2754 10.6045C21.0112 10.505 20.8223 10.2495 20.8223 9.94727V0.805664C20.8224 0.417429 21.1333 0.102539 21.5166 0.102539H30.6406Z" fill="black"/>
</svg>
