<svg xmlns="http://www.w3.org/2000/svg" width="28" height="28" viewBox="0 0 28 28" fill="none"><script xmlns=""/>
<path d="M23.1561 11.5411C22.7086 14.8801 19.6106 14.8457 18.0271 16.7734C15.3765 20.078 16.4436 23.0039 13.9652 23.658C11.4867 23.0039 12.5538 20.0436 9.90326 16.7389C8.38864 14.7768 5.25615 14.8457 4.84307 11.4722C4.49884 8.92491 5.84134 7.34145 6.90845 6.34318C6.9773 6.27434 6.25441 8.78722 7.35595 10.3363C8.3198 11.6443 10.9704 12.4016 12.2784 13.3999C13.8275 14.6391 13.9996 15.9816 13.9996 15.9472C14.034 15.9472 14.2406 14.6391 15.7208 13.4688C17.0288 12.4705 19.6794 11.7132 20.6432 10.4051C21.7448 8.89049 21.0219 6.37761 21.0907 6.44645C22.1923 7.44472 23.5004 9.02818 23.1561 11.5411Z" fill="#5AF1B0"/>
</svg>