<svg width="297" height="297" viewBox="0 0 297 297" fill="none" xmlns="http://www.w3.org/2000/svg">
<path d="M100.481 32.8457C104.448 31.1999 106.335 26.6514 104.692 22.6848C103.046 18.7149 98.4977 16.8312 94.5278 18.4738C90.5612 20.1196 88.6775 24.6681 90.3201 28.6348C91.9627 32.6046 96.5112 34.4883 100.481 32.8457Z" fill="white"/>
<path d="M196.125 263.753C192.155 265.399 190.271 269.948 191.914 273.918C193.56 277.884 198.108 279.768 202.078 278.129C206.045 276.483 207.928 271.931 206.286 267.964C204.64 263.994 200.091 262.111 196.125 263.753Z" fill="white"/>
<path d="M32.8482 100.478C34.4908 96.5082 32.6071 91.963 28.6405 90.3172C24.6706 88.6746 20.1221 90.555 18.4763 94.5249C16.8337 98.4948 18.7174 103.043 22.6873 104.689C26.6571 106.328 31.2056 104.445 32.8482 100.478Z" fill="white"/>
<path d="M263.758 196.121C262.115 200.091 263.999 204.636 267.969 206.279C271.935 207.925 276.484 206.041 278.129 202.071C279.772 198.108 277.888 193.556 273.922 191.91C269.952 190.268 265.403 192.151 263.758 196.121Z" fill="white"/>
<path d="M32.8495 196.124C31.2037 192.158 26.6553 190.274 22.6886 191.913C18.7187 193.559 16.8318 198.108 18.4777 202.078C20.1202 206.044 24.6719 207.931 28.6386 206.285C32.6085 204.639 34.4921 200.091 32.8495 196.124Z" fill="white"/>
<path d="M267.969 90.317C263.999 91.9596 262.115 96.5081 263.758 100.478C265.403 104.448 269.952 106.331 273.922 104.686C277.888 103.046 279.772 98.4946 278.129 94.528C276.487 90.5549 271.935 88.6744 267.969 90.317Z" fill="white"/>
<path d="M90.3201 267.963C88.6775 271.93 90.5612 276.475 94.5278 278.127C98.4977 279.767 103.046 277.883 104.692 273.92C106.331 269.946 104.451 265.398 100.484 263.752C96.5112 262.11 91.9627 263.993 90.3201 267.963Z" fill="white"/>
<path d="M206.283 28.6394C207.929 24.6695 206.042 20.1211 202.075 18.4752C198.105 16.8327 193.557 18.7163 191.914 22.683C190.272 26.6529 192.152 31.2013 196.122 32.8471C200.092 34.4897 204.64 32.6061 206.283 28.6394Z" fill="white"/>
<path d="M148.305 31.1096C156.894 31.1096 163.86 24.1471 163.86 15.5548C163.86 6.96253 156.894 -1.0555e-05 148.305 -1.0555e-05C139.716 -1.0555e-05 132.75 6.96253 132.75 15.5548C132.75 24.1471 139.716 31.1096 148.305 31.1096Z" fill="white"/>
<path d="M148.305 265.486C139.716 265.486 132.75 272.452 132.75 281.044C132.75 289.633 139.716 296.599 148.305 296.599C156.894 296.599 163.86 289.633 163.86 281.044C163.86 272.452 156.894 265.486 148.305 265.486Z" fill="white"/>
<path d="M65.4335 65.433C71.5089 59.3577 71.5089 49.5118 65.4335 43.4364C59.3614 37.3643 49.509 37.3643 43.4369 43.4364C37.3648 49.5118 37.3648 59.3577 43.4369 65.433C49.509 71.5116 59.3614 71.5116 65.4335 65.433Z" fill="white"/>
<path d="M231.166 231.166C225.091 237.242 225.091 247.088 231.166 253.163C237.238 259.235 247.087 259.238 253.162 253.163C259.238 247.088 259.235 237.242 253.162 231.166C247.087 225.091 237.241 225.091 231.166 231.166Z" fill="white"/>
<path d="M31.1128 148.3C31.1128 139.711 24.1471 132.745 15.558 132.745C6.96575 132.745 0 139.711 0 148.303C0 156.892 6.96575 163.855 15.558 163.855C24.1471 163.855 31.1128 156.889 31.1128 148.3Z" fill="white"/>
<path d="M281.047 132.745C272.458 132.745 265.492 139.711 265.492 148.3C265.492 156.889 272.458 163.855 281.047 163.855C289.636 163.855 296.602 156.892 296.602 148.3C296.602 139.711 289.636 132.745 281.047 132.745Z" fill="white"/>
<path d="M43.4393 231.169C37.364 237.241 37.364 247.087 43.4393 253.163C49.5147 259.238 59.3638 259.238 65.4359 253.163C71.5113 247.091 71.5113 237.241 65.4359 231.166C59.3638 225.091 49.5147 225.091 43.4393 231.169Z" fill="white"/>
<path d="M253.162 65.433C259.238 59.3609 259.238 49.5118 253.162 43.4364C247.087 37.3643 237.238 37.3675 231.166 43.4364C225.091 49.5118 225.091 59.3609 231.166 65.433C237.241 71.5116 247.087 71.5116 253.162 65.433Z" fill="white"/>
<path d="M124.478 73.8521C130.839 80.2135 139.3 83.7173 148.303 83.7173C157.301 83.7173 165.764 80.2135 172.126 73.8521C178.491 67.4874 181.997 59.0269 181.997 50.0264V38.9397C179.082 38.0429 176.115 37.2811 173.106 36.6157V50.0264C173.106 56.6515 170.528 62.8811 165.842 67.5646C161.158 72.2513 154.928 74.8325 148.303 74.8325C141.678 74.8325 135.449 72.2513 130.762 67.5646C126.079 62.8811 123.497 56.6515 123.497 50.0264V36.6157C120.489 37.2811 117.518 38.0429 114.609 38.9397V50.0264C114.609 59.0269 118.113 67.4874 124.478 73.8521Z" fill="white"/>
<path d="M172.129 222.747C165.768 216.386 157.304 212.879 148.303 212.879C139.303 212.879 130.842 216.386 124.478 222.747C118.113 229.108 114.609 237.572 114.609 246.569V257.659C117.522 258.559 120.492 259.318 123.497 259.983V246.569C123.497 239.944 126.079 233.715 130.762 229.031C135.449 224.348 141.678 221.767 148.303 221.767C154.928 221.767 161.158 224.348 165.842 229.031C170.528 233.715 173.109 239.944 173.109 246.569V259.983C176.115 259.318 179.085 258.559 181.997 257.659V246.569C181.997 237.572 178.491 229.108 172.129 222.747Z" fill="white"/>
<path d="M78.8137 112.501C87.811 112.504 96.2715 108.997 102.639 102.636C109.001 96.2711 112.505 87.8106 112.505 78.8133C112.505 69.8096 109.001 61.3491 102.639 54.9845L94.8153 47.1637C92.0991 48.6006 89.46 50.1531 86.8788 51.7957L96.3551 61.2688C101.039 65.9555 103.617 72.1851 103.617 78.8133C103.617 85.4352 101.039 91.668 96.3551 96.3515C91.6684 101.035 85.4387 103.613 78.8137 103.613C72.1855 103.613 65.9558 101.035 61.2724 96.3515L51.7993 86.8752C50.1535 89.4565 48.6041 92.0955 47.1641 94.8118L54.9881 102.636C61.3527 108.997 69.8132 112.504 78.8137 112.501Z" fill="white"/>
<path d="M217.792 184.098C208.795 184.095 200.335 187.602 193.967 193.964C187.602 200.328 184.102 208.789 184.102 217.786C184.102 226.79 187.602 235.25 193.967 241.615L201.794 249.439C204.507 247.999 207.149 246.446 209.727 244.804L200.251 235.331C195.568 230.641 192.99 224.414 192.99 217.786C192.99 211.164 195.568 204.931 200.251 200.248C204.938 195.561 211.167 192.986 217.792 192.986C224.417 192.986 230.65 195.564 235.334 200.248L244.807 209.724C246.453 207.143 248.002 204.504 249.442 201.788L241.618 193.964C235.253 187.602 226.793 184.098 217.792 184.098Z" fill="white"/>
<path d="M73.8536 172.126C80.215 165.764 83.7188 157.304 83.7188 148.303C83.7188 139.3 80.215 130.839 73.8536 124.478C67.4889 118.11 59.0285 114.606 50.028 114.606H38.938C38.0444 117.518 37.2826 120.492 36.6172 123.497H50.028C56.653 123.494 62.8826 126.075 67.5693 130.762C72.2528 135.445 74.834 141.675 74.834 148.303C74.834 154.922 72.2528 161.155 67.5693 165.841C62.8826 170.528 56.653 173.106 50.028 173.106H36.6172C37.2826 176.112 38.0444 179.082 38.938 181.994H50.028C59.0285 181.994 67.4889 178.49 73.8536 172.126Z" fill="white"/>
<path d="M246.577 173.105C239.949 173.105 233.719 170.524 229.036 165.841C224.349 161.154 221.771 154.924 221.771 148.299C221.771 141.674 224.352 135.445 229.036 130.761C233.719 126.074 239.949 123.493 246.577 123.493H259.988C259.322 120.488 258.56 117.521 257.664 114.608H246.577C237.576 114.608 229.116 118.112 222.751 124.474C216.387 130.842 212.883 139.299 212.883 148.299C212.883 157.303 216.387 165.76 222.751 172.125C229.116 178.493 237.576 181.997 246.577 181.997H257.664C258.56 179.081 259.322 176.114 259.988 173.105H246.577Z" fill="white"/>
<path d="M112.505 217.791C112.505 208.793 109.001 200.33 102.636 193.965C96.2747 187.603 87.811 184.1 78.8137 184.1C69.8132 184.1 61.3527 187.6 54.9849 193.965L47.1641 201.786C48.6009 204.502 50.1567 207.141 51.7993 209.722L61.2724 200.249C65.9558 195.566 72.1855 192.984 78.8137 192.984C85.4387 192.984 91.6684 195.566 96.3519 200.249C101.035 204.936 103.617 211.166 103.617 217.791C103.617 224.419 101.035 230.645 96.3519 235.329L86.8788 244.805C89.4568 246.451 92.0991 248 94.8153 249.44L102.636 241.616C109.001 235.252 112.505 226.791 112.505 217.791Z" fill="white"/>
<path d="M184.102 78.8121C184.102 87.8126 187.605 96.2731 193.97 102.635C200.331 109.002 208.795 112.503 217.792 112.503C226.796 112.503 235.257 108.999 241.621 102.638L249.442 94.8137C248.005 92.1007 246.453 89.4584 244.807 86.8772L235.334 96.3502C230.65 101.037 224.417 103.618 217.792 103.618C211.167 103.618 204.938 101.037 200.254 96.3502C195.568 91.6667 192.99 85.4371 192.99 78.8121C192.99 72.1838 195.568 65.9574 200.254 61.2707L209.727 51.7977C207.149 50.1519 204.507 48.6025 201.794 47.1624L193.97 54.9864C187.605 61.3511 184.102 69.8084 184.102 78.8121Z" fill="white"/>
<path d="M148.298 190.263C125.16 190.263 106.333 171.439 106.333 148.298C106.333 125.161 125.16 106.337 148.298 106.337C171.436 106.337 190.26 125.161 190.26 148.298C190.26 171.439 171.436 190.263 148.298 190.263ZM148.298 97.4488C120.258 97.4488 97.4453 120.262 97.4453 148.298C97.4453 176.341 120.258 199.151 148.298 199.151C176.338 199.151 199.148 176.341 199.148 148.298C199.148 120.262 176.338 97.4488 148.298 97.4488Z" fill="white"/>
<path d="M148.304 125.098C135.488 125.098 125.102 135.484 125.102 148.3C125.102 161.116 135.488 171.506 148.304 171.506C161.12 171.506 171.506 161.116 171.506 148.3C171.506 135.484 161.12 125.098 148.304 125.098Z" fill="white"/>
</svg>
