<svg width="700" height="353" viewBox="0 0 700 353" fill="none" xmlns="http://www.w3.org/2000/svg">
<path d="M78.6677 145.092C78.6677 123.355 61.0573 105.734 39.3339 105.734C17.6104 105.734 0 123.355 0 145.092V207.867C0 229.604 17.6104 247.225 39.3339 247.225C61.0573 247.225 78.6677 229.604 78.6677 207.867V145.092Z" fill="url(#paint0_linear_6095_48)"/>
<path d="M347.024 0C337.305 0 327.985 3.86237 321.112 10.7374C314.24 17.6125 310.38 26.9371 310.38 36.6599V88.3287C310.376 98.0457 306.518 107.364 299.653 114.237C292.787 121.111 283.476 124.978 273.763 124.989H270.533C265.719 124.99 260.951 124.044 256.503 122.202C252.055 120.361 248.013 117.661 244.608 114.257C241.202 110.853 238.501 106.811 236.657 102.362C234.813 97.9133 233.863 93.1448 233.861 88.3287V80.1121C233.857 70.3904 229.996 61.068 223.124 54.1937C216.253 47.3194 206.935 43.4559 197.217 43.4523H191.837C182.118 43.4523 172.796 47.3142 165.921 54.1889C159.047 61.0635 155.183 70.3881 155.18 80.1121V272.861C155.187 282.581 159.053 291.901 165.927 298.77C172.801 305.64 182.121 309.497 191.837 309.493H197.217C202.029 309.493 206.794 308.545 211.24 306.702C215.686 304.86 219.726 302.16 223.128 298.756C226.531 295.351 229.23 291.31 231.072 286.862C232.913 282.414 233.861 277.647 233.861 272.833V214.468C233.865 204.746 237.727 195.424 244.598 188.549C251.469 181.675 260.788 177.811 270.505 177.808H273.763C283.48 177.811 292.799 181.675 299.67 188.549C306.542 195.424 310.403 204.746 310.407 214.468V316.34C310.407 321.154 311.355 325.922 313.196 330.369C315.038 334.817 317.737 338.858 321.14 342.263C324.543 345.667 328.582 348.367 333.028 350.209C337.474 352.052 342.239 353 347.051 353H352.431C362.145 352.993 371.458 349.127 378.324 342.253C385.19 335.379 389.047 326.058 389.047 316.34V268.848C389.047 264.033 389.996 259.264 391.838 254.816C393.68 250.367 396.381 246.325 399.785 242.921C403.189 239.516 407.23 236.816 411.678 234.975C416.125 233.133 420.892 232.186 425.705 232.188H428.922C433.735 232.186 438.5 233.133 442.947 234.975C447.394 236.817 451.434 239.517 454.837 242.922C458.24 246.326 460.939 250.368 462.78 254.817C464.621 259.265 465.568 264.033 465.566 268.848C465.57 278.57 469.431 287.892 476.303 294.766C483.174 301.641 492.493 305.504 502.21 305.508H507.603C517.321 305.504 526.639 301.641 533.511 294.766C540.382 287.892 544.244 278.57 544.247 268.848V89.8899C544.247 80.1671 540.387 70.8425 533.515 63.9675C526.642 57.0924 517.322 53.23 507.603 53.23H502.21C492.491 53.23 483.171 57.0924 476.299 63.9675C469.427 70.8425 465.566 80.1671 465.566 89.8899V142.709C465.57 147.526 464.624 152.296 462.785 156.747C460.945 161.198 458.246 165.242 454.843 168.649C451.44 172.056 447.399 174.759 442.951 176.603C438.504 178.447 433.736 179.396 428.922 179.396H425.705C415.985 179.396 406.663 175.534 399.789 168.66C392.915 161.785 389.051 152.461 389.047 142.737V36.6599C389.047 31.8456 388.1 27.0785 386.258 22.6307C384.416 18.183 381.717 14.1416 378.315 10.7374C374.912 7.33324 370.872 4.6329 366.426 2.79057C361.981 0.948235 357.216 0 352.403 0" fill="url(#paint1_linear_6095_48)"/>
<path d="M699.426 145.092C699.426 123.355 681.815 105.734 660.092 105.734C638.368 105.734 620.758 123.355 620.758 145.092V207.867C620.758 229.604 638.368 247.225 660.092 247.225C681.815 247.225 699.426 229.604 699.426 207.867V145.092Z" fill="url(#paint2_linear_6095_48)"/>
<defs>
<linearGradient id="paint0_linear_6095_48" x1="-12.5759" y1="84.2226" x2="147.708" y2="160.418" gradientUnits="userSpaceOnUse">
<stop stop-color="#66CC66"/>
<stop offset="1" stop-color="#98FF98"/>
</linearGradient>
<linearGradient id="paint1_linear_6095_48" x1="92.9832" y1="-53.669" x2="607.722" y2="431.405" gradientUnits="userSpaceOnUse">
<stop stop-color="#66CC66"/>
<stop offset="1" stop-color="#98FF98"/>
</linearGradient>
<linearGradient id="paint2_linear_6095_48" x1="608.182" y1="84.2226" x2="768.465" y2="160.418" gradientUnits="userSpaceOnUse">
<stop stop-color="#66CC66"/>
<stop offset="1" stop-color="#98FF98"/>
</linearGradient>
</defs>
</svg>
