<svg width="500" height="500" viewBox="0 0 500 500" fill="none" xmlns="http://www.w3.org/2000/svg">
<path d="M250 500C388.071 500 500 388.071 500 250C500 111.929 388.071 0 250 0C111.929 0 0 111.929 0 250C0 388.071 111.929 500 250 500Z" fill="#1999F5"/>
<g clip-path="url(#clip0_2829_90)">
<path fill-rule="evenodd" clip-rule="evenodd" d="M289.995 266.798C291.152 263.578 290.212 262.566 286.92 263.615V263.578C275.378 267.269 255.371 272.334 232.361 267.812C227.549 266.835 227.839 263.145 232.723 262.891C250.957 261.987 279.466 257.862 294.843 242.052C306.046 230.531 312.032 212.909 318.697 193.292C326.431 170.527 335.079 145.074 353.851 123.347C354.301 122.824 354.834 122.268 355.383 121.695C359.167 117.745 363.713 113 346.905 113C262.025 113 231.245 181.52 179.516 296.673C170.368 317.038 160.565 338.862 149.691 362.023C148.763 363.99 147.833 365.868 146.956 367.641C144.444 372.712 142.36 376.919 141.985 379.895C141.695 382.356 143.179 384.382 146.109 384.382C156.243 384.282 166.479 366.363 175.969 349.749C180.269 342.222 184.416 334.963 188.331 329.751C193.359 323.057 198.28 319.946 204.503 318.318C209.398 317.013 214.842 316.399 220.621 315.747C227.183 315.006 234.179 314.217 241.297 312.312C269.409 304.787 283.953 283.875 289.995 266.798ZM343.83 358.875C343.83 372.913 332.433 384.309 318.396 384.309C304.359 384.309 292.962 372.913 292.962 358.875C292.962 344.837 304.359 333.441 318.396 333.441C332.433 333.441 343.83 344.837 343.83 358.875Z" fill="white"/>
</g>
<defs>
<clipPath id="clip0_2829_90">
<rect width="275" height="275" fill="white" transform="translate(113 113)"/>
</clipPath>
</defs>
</svg>
