<svg width="244" height="213" viewBox="0 0 244 213" fill="none" xmlns="http://www.w3.org/2000/svg">
<path d="M123.919 182.717L200.491 212.416L243.84 212.604L182.021 98.1027L130.242 125.885L182.483 153.907L200.491 178.197L125.855 151.425C124.629 150.935 123.261 150.935 122.035 151.425L47.3989 178.197L65.4067 153.907L117.648 125.885L65.4067 97.863L0.657227 212.553L47.3989 212.365L123.919 182.717Z" fill="#C6FD7C"/>
<path d="M125.794 100.227L172.821 81.1147L123.876 0.0507812L74.6914 81.0976L121.975 100.312C122.585 100.553 123.238 100.669 123.893 100.654C124.549 100.64 125.195 100.494 125.794 100.227Z" fill="#C6FD7C"/>
</svg>
