<svg width="244" height="214" viewBox="0 0 244 214" fill="none" xmlns="http://www.w3.org/2000/svg">
<path d="M123.919 183.284L200.491 212.984L243.84 213.172L182.021 98.6702L130.242 126.453L182.483 154.475L200.491 178.765L125.855 151.993C124.629 151.502 123.261 151.502 122.035 151.993L47.3989 178.765L65.4067 154.475L117.648 126.453L65.4067 98.4306L0.657227 213.121L47.3989 212.932L123.919 183.284Z" fill="black"/>
<path d="M125.794 100.794L172.821 81.6822L123.876 0.618286L74.6914 81.6651L121.975 100.88C122.585 101.12 123.238 101.237 123.893 101.222C124.549 101.207 125.195 101.062 125.794 100.794Z" fill="black"/>
</svg>
