<svg width="429" height="146" viewBox="0 0 429 146" fill="none" xmlns="http://www.w3.org/2000/svg">
<path d="M385.221 125H374.614L384.543 103.005L359 48H370.742L390.014 90.8195L409.286 48H420L385.208 124.994L385.221 125Z" fill="white"/>
<path d="M41.0128 56.4967L66 43.1042L61.7992 35L38.9126 44.2887C38.3233 44.5282 37.6702 44.5282 37.081 44.2887L14.2008 35L10 43.1042L34.987 56.5033L10 69.896L14.2008 78L37.081 68.7113C37.6702 68.4718 38.3233 68.4718 38.9126 68.7113L61.7927 78L65.9936 69.896L41.0064 56.4967H41.0128Z" fill="#7C4DFF"/>
<path d="M119.785 89.8216L140.529 41H156V104.658H145.801V50.7453L122.88 105H115.544L92.853 51.081V104.658H83V41H99.1567L119.785 89.8216Z" fill="white"/>
<path d="M225 76C225 92.4624 212.181 105 195.5 105C178.819 105 166 92.4624 166 76C166 59.5376 178.704 47 195.5 47C212.296 47 225 59.5376 225 76ZM214.338 76C214.338 64.9146 206.739 56.4079 195.506 56.4079C184.273 56.4079 176.675 65.1399 176.675 76C176.675 86.8601 184.273 95.5921 195.506 95.5921C206.739 95.5921 214.338 87.0854 214.338 76Z" fill="white"/>
<path d="M246.651 103H236V48.2213H246.651V58.3141C248.875 53.8814 255.542 47 266.311 47C280.938 47 291 57.316 291 71.5066V103H280.231V73.3912C280.231 63.0752 273.677 56.3115 263.733 56.3115C253.789 56.3115 246.644 63.4101 246.644 73.3912V103H246.651Z" fill="white"/>
<path d="M357.992 77.2267H310.604C311.177 87.5299 318.79 95.5918 329.972 95.5918C341.157 95.5918 345.997 89.658 346.926 87.8677H357.303C356.383 92.6812 349.118 105 329.98 105C312.338 105 300 92.2368 300 75.9999C300 59.7629 312.338 47 328.941 47C345.546 47 358 59.0932 358 77.233L357.992 77.2267ZM311.293 68.7201H346.345C343.697 60.32 337.585 55.7319 328.935 55.7319C319.71 55.7319 313.485 60.6582 311.293 68.7201Z" fill="white"/>
</svg>
